<svg width="16" height="17" viewBox="0 0 16 17" fill="none" xmlns="http://www.w3.org/2000/svg">
<g id="Icon / 16 / White / Reset ">
<path id="Vector" d="M13.57 10.52H14.57C15.03 10.52 15.4 10.15 15.4 9.68998V8.06998C15.4 7.60998 15.03 7.23998 14.57 7.23998H13.57L13.1 6.10998L13.81 5.39998C14.14 5.06998 14.14 4.54998 13.81 4.21998L12.66 3.06998C12.33 2.73998 11.81 2.73998 11.48 3.06998L10.77 3.77998L9.63998 3.30998V2.30998C9.63998 1.84998 9.26997 1.47998 8.80997 1.47998H7.18998C6.72998 1.47998 6.35998 1.84998 6.35998 2.30998V3.30998L5.22997 3.77998L4.51997 3.06998C4.18997 2.73998 3.66997 2.73998 3.33997 3.06998L2.18997 4.21998C1.85997 4.54998 1.85997 5.06998 2.18997 5.39998L2.89997 6.10998L2.42997 7.23998H1.42997C0.96997 7.23998 0.599976 7.60998 0.599976 8.06998V9.68998C0.599976 10.15 0.96997 10.52 1.42997 10.52H2.42997L2.89997 11.65L2.18997 12.36C1.85997 12.69 1.85997 13.21 2.18997 13.54L3.33997 14.69C3.66997 15.02 4.18997 15.02 4.51997 14.69L5.22997 13.98L6.35998 14.45V15.45C6.35998 15.91 6.72998 16.28 7.18998 16.28H8.80997C9.26997 16.28 9.63998 15.91 9.63998 15.45V14.45L10.77 13.98L11.48 14.69C11.81 15.02 12.33 15.02 12.66 14.69L13.81 13.54C14.14 13.21 14.14 12.69 13.81 12.36L13.1 11.65L13.57 10.52Z" stroke="white" stroke-width="1.2" stroke-linecap="round" stroke-linejoin="round"/>
<path id="Vector_2" d="M9.69006 11.8499C11.2001 10.9199 11.6601 8.93992 10.7301 7.42992C9.80005 5.91992 7.82005 5.45992 6.31005 6.38992C4.80005 7.31992 4.34005 9.29992 5.27005 10.8099C5.34005 10.9299 5.42005 11.0399 5.51005 11.1499" stroke="white" stroke-width="1.2" stroke-linecap="round" stroke-linejoin="round"/>
<path id="Vector_3" d="M11.35 12.1701L9.42003 12.3001L9.28003 10.3701" stroke="white" stroke-linecap="round" stroke-linejoin="round"/>
</g>
</svg>
