<svg width="16" height="16" viewBox="0 0 16 16" fill="none" xmlns="http://www.w3.org/2000/svg">
<g id="ico_Unsub_16" clip-path="url(#clip0_649_19077)">
<g id="Group">
<g id="Group_2">
<path id="Vector" d="M5.71094 13.2005L6.38094 13.8105C7.32094 14.7805 8.71094 15.4005 10.2509 15.4005C13.0909 15.4005 15.4009 13.3105 15.4009 10.7305" stroke="#FFFFFF" stroke-width="1.2" stroke-linecap="round" stroke-linejoin="round"/>
<path id="Vector_2" d="M5.3107 9.54297L2.7907 7.26297C2.2907 6.80297 1.4707 6.80297 0.970703 7.26297C0.470703 7.72297 0.470703 8.45297 0.970703 8.91297L4.0407 11.693" stroke="#FFFFFF" stroke-width="1.2" stroke-linecap="round" stroke-linejoin="round"/>
<path id="Vector_3" d="M5.27148 9.50156V1.77156C5.27148 1.13156 5.85148 0.601562 6.56148 0.601562C7.27148 0.601562 7.85148 1.12156 7.85148 1.77156V7.93156" stroke="#FFFFFF" stroke-width="1.2" stroke-linecap="round" stroke-linejoin="round"/>
<path id="Vector_4" d="M7.83984 7.93328V5.28328C7.83984 4.64328 8.41984 4.11328 9.12984 4.11328C9.83984 4.11328 10.4198 4.63328 10.4198 5.28328" stroke="#FFFFFF" stroke-width="1.2" stroke-linecap="round" stroke-linejoin="round"/>
<path id="Vector_5" d="M12.6211 5.8125C12.8511 6.0225 13.0011 6.3125 13.0011 6.6425V8.6925" stroke="#FFFFFF" stroke-width="1.2" stroke-linecap="round" stroke-linejoin="round"/>
<path id="Vector_6" d="M12.9902 8.68188V8.00187C12.9902 7.40187 13.5202 6.92188 14.1802 6.92188C14.8402 6.92188 15.3702 7.40187 15.3702 8.00187V10.8419" stroke="#FFFFFF" stroke-width="1.2" stroke-linecap="round" stroke-linejoin="round"/>
<path id="Vector_7" d="M10.4199 8.68V8" stroke="#FFFFFF" stroke-width="1.2" stroke-linecap="round" stroke-linejoin="round"/>
</g>
</g>
<path id="Vector_8" d="M14.3996 1.60156L1.59961 14.4016" stroke="#FFFFFF" stroke-width="1.2" stroke-linecap="round" stroke-linejoin="round"/>
</g>
<defs>
<clipPath id="clip0_649_19077">
<rect width="16" height="16" fill="#FFFFFF"/>
</clipPath>
</defs>
</svg>
