<svg width="50" height="50" viewBox="0 0 50 50" fill="none" xmlns="http://www.w3.org/2000/svg">
<g id="Icon / 50 / Search Dicument" clip-path="url(#clip0_1862_40395)">
<path id="Vector" d="M39.786 15.8511V7.41615C39.786 3.86828 36.8906 1 33.3263 1H7.45771C3.88343 1 0.998047 3.87827 0.998047 7.41615V42.5451C0.998047 46.0929 3.89341 48.9612 7.45771 48.9612H31.1398" stroke="#BBBBBB" stroke-width="2" stroke-linecap="round" stroke-linejoin="round"/>
<path id="Vector_2" d="M8.16602 11.8027H23.7111" stroke="#BBBBBB" stroke-width="2" stroke-linecap="round" stroke-linejoin="round"/>
<path id="Vector_3" d="M8.16602 19.0195H18.829" stroke="#BBBBBB" stroke-width="2" stroke-linecap="round" stroke-linejoin="round"/>
<g id="Group">
<path id="Vector_4" d="M34.5556 41.8841C39.8049 41.8841 44.0604 37.6244 44.0604 32.3698C44.0604 27.1152 39.8049 22.8555 34.5556 22.8555C29.3062 22.8555 25.0508 27.1152 25.0508 32.3698C25.0508 37.6244 29.3062 41.8841 34.5556 41.8841Z" stroke="#0067AC" stroke-width="2" stroke-linecap="round" stroke-linejoin="round"/>
<path id="Vector_5" d="M49.003 46.8411L41.2754 39.0957" stroke="#0067AC" stroke-width="2" stroke-linecap="round" stroke-linejoin="round"/>
</g>
</g>
<defs>
<clipPath id="clip0_1862_40395">
<rect width="50" height="50" fill="white"/>
</clipPath>
</defs>
</svg>
