<svg width="76" height="76" viewBox="0 0 76 76" fill="none" xmlns="http://www.w3.org/2000/svg">
<g id="Icon for Modal Alert">
<path id="Warnning" fill-rule="evenodd" clip-rule="evenodd" d="M38 0C30.4843 0 23.1374 2.22866 16.8883 6.40415C10.6393 10.5796 5.76872 16.5144 2.89259 23.458C0.0164647 30.4016 -0.736062 38.0422 0.730176 45.4134C2.19641 52.7847 5.81556 59.5557 11.13 64.8701C16.4444 70.1844 23.2153 73.8036 30.5866 75.2698C37.9579 76.7361 45.5984 75.9836 52.542 73.1074C59.4856 70.2313 65.4204 65.3607 69.5959 59.1117C73.7714 52.8626 76 45.5157 76 38C76 27.9218 71.9965 18.2563 64.8701 11.1299C57.7437 4.00356 48.0782 0 38 0ZM38 70C31.671 70 25.4841 68.1232 20.2218 64.607C14.9594 61.0908 10.8579 56.0931 8.43587 50.2459C6.01387 44.3986 5.38016 37.9645 6.61489 31.7571C7.84962 25.5497 10.8973 19.8479 15.3726 15.3726C19.8479 10.8973 25.5497 7.8496 31.7571 6.61487C37.9645 5.38014 44.3986 6.01385 50.2459 8.43585C56.0931 10.8579 61.0908 14.9594 64.607 20.2218C68.1232 25.4841 70 31.671 70 38C70 46.4869 66.6286 54.6263 60.6274 60.6274C54.6263 66.6286 46.4869 70 38 70ZM38 18C37.0717 18 36.1815 18.3687 35.5251 19.0251C34.8688 19.6815 34.5 20.5717 34.5 21.5L34.93 41C34.93 41.8142 35.2534 42.5951 35.8292 43.1708C36.4049 43.7466 37.1858 44.07 38 44.07C38.8142 44.07 39.5951 43.7466 40.1708 43.1708C40.7466 42.5951 41.07 41.8142 41.07 41L41.5 21.5C41.5 20.5717 41.1312 19.6815 40.4749 19.0251C39.8185 18.3687 38.9283 18 38 18ZM41.5 54.5C41.5 56.433 39.933 58 38 58C36.067 58 34.5 56.433 34.5 54.5C34.5 52.567 36.067 51 38 51C39.933 51 41.5 52.567 41.5 54.5Z" fill="#FB923C"/>
</g>
</svg>
