<svg width="76" height="76" viewBox="0 0 76 76" fill="none" xmlns="http://www.w3.org/2000/svg">
<g id="Icon for Modal Alert">
<path id="Error" fill-rule="evenodd" clip-rule="evenodd" d="M16.8883 6.40415C23.1374 2.22866 30.4843 0 38 0C48.0782 0 57.7437 4.00356 64.8701 11.1299C71.9965 18.2563 76 27.9218 76 38C76 45.5157 73.7714 52.8626 69.5959 59.1117C65.4204 65.3607 59.4856 70.2313 52.542 73.1074C45.5984 75.9836 37.9579 76.7361 30.5866 75.2698C23.2153 73.8036 16.4444 70.1844 11.13 64.8701C5.81556 59.5557 2.19641 52.7847 0.730176 45.4134C-0.736062 38.0422 0.0164647 30.4016 2.89259 23.458C5.76872 16.5144 10.6393 10.5796 16.8883 6.40415ZM20.2218 64.607C25.4841 68.1232 31.671 70 38 70C46.4869 70 54.6263 66.6286 60.6274 60.6274C66.6286 54.6263 70 46.4869 70 38C70 31.671 68.1232 25.4841 64.607 20.2218C61.0908 14.9594 56.0931 10.8579 50.2459 8.43585C44.3986 6.01385 37.9645 5.38014 31.7571 6.61487C25.5497 7.8496 19.8479 10.8973 15.3726 15.3726C10.8973 19.8479 7.84962 25.5497 6.61489 31.7571C5.38016 37.9645 6.01387 44.3986 8.43587 50.2459C10.8579 56.0931 14.9594 61.0908 20.2218 64.607ZM51 21.8726C51.795 21.8726 52.5575 22.1881 53.12 22.7499C53.3996 23.0286 53.6216 23.3598 53.773 23.7245C53.9244 24.0891 54.0023 24.4801 54.0023 24.8749C54.0023 25.2698 53.9244 25.6607 53.773 26.0254C53.6216 26.39 53.3996 26.7212 53.12 26.9999L42.24 37.8699L53.12 48.7599C53.6818 49.3224 53.9973 50.0849 53.9973 50.8799C53.9973 51.6749 53.6818 52.4374 53.12 52.9999C52.5575 53.5617 51.795 53.8773 51 53.8773C50.205 53.8773 49.4425 53.5617 48.88 52.9999L38 42.1099L27.12 52.9899C26.5575 53.5517 25.795 53.8673 25 53.8673C24.205 53.8673 23.4425 53.5517 22.88 52.9899C22.3182 52.4274 22.0026 51.6649 22.0026 50.8699C22.0026 50.0749 22.3182 49.3124 22.88 48.7499L33.76 37.8699L22.88 26.9999C22.6009 26.7215 22.3794 26.3909 22.2281 26.0269C22.0769 25.6629 21.9988 25.2726 21.9983 24.8785C21.9978 24.4843 22.075 24.0939 22.2254 23.7295C22.3758 23.3651 22.5966 23.034 22.875 22.7549C23.1534 22.4759 23.484 22.2544 23.848 22.1031C24.212 21.9518 24.6022 21.8737 24.9964 21.8732C25.3906 21.8728 25.781 21.95 26.1454 22.1004C26.5097 22.2508 26.8409 22.4715 27.12 22.7499L38 33.6299L48.88 22.7499C49.4425 22.1881 50.205 21.8726 51 21.8726Z" fill="#EA5455"/>
</g>
</svg>
