<svg width="16" height="16" viewBox="0 0 16 16" fill="none" xmlns="http://www.w3.org/2000/svg">
<g id="Icon / 16 / Management" clip-path="url(#clip0_1020_12522)">
<g id="Group">
<path id="Vector" d="M13.4001 0.599609H2.6001C1.49553 0.599609 0.600098 1.49504 0.600098 2.59961V13.3996C0.600098 14.5042 1.49553 15.3996 2.6001 15.3996H13.4001C14.5047 15.3996 15.4001 14.5042 15.4001 13.3996V2.59961C15.4001 1.49504 14.5047 0.599609 13.4001 0.599609Z" stroke="white" stroke-width="1.2" stroke-linecap="round" stroke-linejoin="round"/>
<path id="Vector_2" d="M0.600098 3.55957H15.4001" stroke="white" stroke-width="1.2" stroke-linecap="round" stroke-linejoin="round"/>
<path id="Vector_3" d="M10.9599 8.61953H10.5099C10.4099 8.36953 10.3999 8.35953 10.2999 8.10953L10.6199 7.78953C10.7699 7.63953 10.7699 7.40953 10.6199 7.25953L10.0999 6.73953C9.9499 6.58953 9.7199 6.58953 9.5699 6.73953L9.2499 7.05953C8.9999 6.95953 8.9899 6.94953 8.7399 6.84953V6.39953C8.7399 6.18953 8.5699 6.01953 8.3599 6.01953H7.6299C7.4199 6.01953 7.2499 6.18953 7.2499 6.39953V6.84953C6.9999 6.94953 6.9899 6.95953 6.7399 7.05953L6.4199 6.73953C6.2699 6.58953 6.0399 6.58953 5.8899 6.73953L5.3699 7.25953C5.2199 7.40953 5.2199 7.63953 5.3699 7.78953L5.6899 8.10953C5.5899 8.35953 5.5799 8.36953 5.4799 8.61953H5.0299C4.8199 8.61953 4.6499 8.78953 4.6499 8.99953V9.72953C4.6499 9.93953 4.8199 10.1095 5.0299 10.1095H5.4799C5.5799 10.3595 5.5899 10.3695 5.6899 10.6195L5.3699 10.9395C5.2199 11.0895 5.2199 11.3195 5.3699 11.4695L5.8899 11.9895C6.0399 12.1395 6.2699 12.1395 6.4199 11.9895L6.7399 11.6695C6.9899 11.7695 6.9999 11.7795 7.2499 11.8795V12.3295C7.2499 12.5395 7.4199 12.7095 7.6299 12.7095H8.3599C8.5699 12.7095 8.7399 12.5395 8.7399 12.3295V11.8795C8.9899 11.7795 8.9999 11.7695 9.2499 11.6695L9.5699 11.9895C9.7199 12.1395 9.9499 12.1395 10.0999 11.9895L10.6199 11.4695C10.7699 11.3195 10.7699 11.0895 10.6199 10.9395L10.2999 10.6195C10.3999 10.3695 10.4099 10.3595 10.5099 10.1095H10.9599C11.1699 10.1095 11.3399 9.93953 11.3399 9.72953V8.99953C11.3399 8.78953 11.1699 8.61953 10.9599 8.61953ZM7.9999 10.1895C7.5399 10.1895 7.1699 9.81953 7.1699 9.35953C7.1699 8.89953 7.5399 8.52953 7.9999 8.52953C8.4599 8.52953 8.8299 8.89953 8.8299 9.35953C8.8299 9.81953 8.4599 10.1895 7.9999 10.1895Z" fill="white"/>
</g>
</g>
<defs>
<clipPath id="clip0_1020_12522">
<rect width="16" height="16" fill="white"/>
</clipPath>
</defs>
</svg>
