<svg width="24" height="24" viewBox="0 0 24 24" fill="none" xmlns="http://www.w3.org/2000/svg">
<path d="M22.3041 14.6851H17.7976C16.143 14.684 14.8018 13.3439 14.8008 11.6892C14.8008 10.0345 16.143 8.69437 17.7976 8.69336H22.3041" stroke="white" stroke-width="2" stroke-linecap="round" stroke-linejoin="round"/>
<path d="M18.3079 11.6211H17.9609" stroke="white" stroke-width="2" stroke-linecap="round" stroke-linejoin="round"/>
<path fill-rule="evenodd" clip-rule="evenodd" d="M6.84155 2H16.4632C19.6893 2 22.3047 4.61541 22.3047 7.84155V15.8308C22.3047 19.057 19.6893 21.6724 16.4632 21.6724H6.84155C3.61541 21.6724 1 19.057 1 15.8308V7.84155C1 4.61541 3.61541 2 6.84155 2Z" stroke="white" stroke-width="2" stroke-linecap="round" stroke-linejoin="round"/>
<path d="M6.04883 7.05273H12.0588" stroke="white" stroke-width="2" stroke-linecap="round" stroke-linejoin="round"/>
<path d="M11.9206 13.8005H11.4197C11.3084 13.5222 11.2972 13.5111 11.1859 13.2328L11.5421 12.8766C11.7091 12.7096 11.7091 12.4536 11.5421 12.2866L10.9633 11.7077C10.7963 11.5408 10.5403 11.5408 10.3733 11.7077L10.0171 12.0639C9.73878 11.9526 9.72765 11.9415 9.44935 11.8302V11.3293C9.44935 11.0955 9.26012 10.9062 9.02635 10.9062H8.21373C7.97997 10.9062 7.79073 11.0955 7.79073 11.3293V11.8302C7.51244 11.9415 7.5013 11.9526 7.22301 12.0639L6.8668 11.7077C6.69982 11.5408 6.44379 11.5408 6.27682 11.7077L5.69797 12.2866C5.53099 12.4536 5.53099 12.7096 5.69797 12.8766L6.05418 13.2328C5.94287 13.5111 5.93173 13.5222 5.82042 13.8005H5.31949C5.08572 13.8005 4.89648 13.9897 4.89648 14.2235V15.0361C4.89648 15.2699 5.08572 15.4591 5.31949 15.4591H5.82042C5.93173 15.7374 5.94287 15.7485 6.05418 16.0268L5.69797 16.383C5.53099 16.55 5.53099 16.806 5.69797 16.973L6.27682 17.5518C6.44379 17.7188 6.69982 17.7188 6.8668 17.5518L7.22301 17.1956C7.5013 17.307 7.51244 17.3181 7.79073 17.4294V17.9303C7.79073 18.1641 7.97997 18.3533 8.21373 18.3533H9.02635C9.26012 18.3533 9.44935 18.1641 9.44935 17.9303V17.4294C9.72765 17.3181 9.73878 17.307 10.0171 17.1956L10.3733 17.5518C10.5403 17.7188 10.7963 17.7188 10.9633 17.5518L11.5421 16.973C11.7091 16.806 11.7091 16.55 11.5421 16.383L11.1859 16.0268C11.2972 15.7485 11.3084 15.7374 11.4197 15.4591H11.9206C12.1544 15.4591 12.3436 15.2699 12.3436 15.0361V14.2235C12.3436 13.9897 12.1544 13.8005 11.9206 13.8005ZM8.62561 15.5481C8.11355 15.5481 7.70168 15.1363 7.70168 14.6242C7.70168 14.1122 8.11355 13.7003 8.62561 13.7003C9.13767 13.7003 9.54954 14.1122 9.54954 14.6242C9.54954 15.1363 9.13767 15.5481 8.62561 15.5481Z" fill="white"/>
</svg>
