<svg width="76" height="76" viewBox="0 0 76 76" fill="none" xmlns="http://www.w3.org/2000/svg">
<g id="Icon for Modal Alert">
<path id="Success" fill-rule="evenodd" clip-rule="evenodd" d="M16.8883 6.40415C23.1374 2.22866 30.4843 0 38 0C48.0782 0 57.7437 4.00356 64.8701 11.1299C71.9965 18.2563 76 27.9218 76 38C76 45.5157 73.7714 52.8626 69.5959 59.1117C65.4204 65.3607 59.4856 70.2313 52.542 73.1074C45.5984 75.9836 37.9579 76.7361 30.5866 75.2698C23.2153 73.8036 16.4444 70.1844 11.13 64.8701C5.81556 59.5557 2.19641 52.7847 0.730176 45.4134C-0.736062 38.0422 0.0164647 30.4016 2.89259 23.458C5.76872 16.5144 10.6393 10.5796 16.8883 6.40415ZM20.2218 64.607C25.4841 68.1232 31.671 70 38 70C46.4869 70 54.6263 66.6286 60.6274 60.6274C66.6286 54.6263 70 46.4869 70 38C70 31.671 68.1232 25.4841 64.607 20.2218C61.0908 14.9594 56.0931 10.8579 50.2459 8.43585C44.3986 6.01385 37.9645 5.38014 31.7571 6.61487C25.5497 7.8496 19.8479 10.8973 15.3726 15.3726C10.8973 19.8479 7.84962 25.5497 6.61489 31.7571C5.38016 37.9645 6.01387 44.3986 8.43587 50.2459C10.8579 56.0931 14.9594 61.0908 20.2218 64.607ZM31.67 46.29L54.89 23.36C55.4576 22.8004 56.2242 22.4892 57.0212 22.4948C57.8182 22.5004 58.5804 22.8224 59.14 23.39C59.6996 23.9576 60.0108 24.7242 60.0052 25.5212C59.9996 26.3182 59.6776 27.0804 59.11 27.64L33.77 52.64C33.2088 53.1927 32.4527 53.5025 31.665 53.5025C30.8773 53.5025 30.1212 53.1927 29.56 52.64L16.89 40.14C16.3224 39.5804 16.0004 38.8182 15.9948 38.0212C15.9892 37.2242 16.3004 36.4576 16.86 35.89C17.4196 35.3224 18.1818 35.0004 18.9788 34.9948C19.7758 34.9892 20.5424 35.3004 21.11 35.86L31.67 46.29Z" fill="#2CCC72"/>
</g>
</svg>
