<svg width="76" height="76" viewBox="0 0 76 76" fill="none" xmlns="http://www.w3.org/2000/svg">
<g id="Icon for Modal Alert">
<path id="Question" fill-rule="evenodd" clip-rule="evenodd" d="M38 0C30.4843 0 23.1374 2.22866 16.8883 6.40415C10.6393 10.5796 5.76872 16.5144 2.89259 23.458C0.0164647 30.4016 -0.736062 38.0422 0.730176 45.4134C2.19641 52.7847 5.81556 59.5557 11.13 64.8701C16.4444 70.1844 23.2153 73.8036 30.5866 75.2698C37.9579 76.7361 45.5984 75.9836 52.542 73.1074C59.4856 70.2313 65.4204 65.3607 69.5959 59.1117C73.7714 52.8626 76 45.5157 76 38C76 27.9218 71.9965 18.2563 64.8701 11.1299C57.7437 4.00356 48.0782 0 38 0ZM38 70C31.671 70 25.4841 68.1232 20.2218 64.607C14.9594 61.0908 10.8579 56.0931 8.43587 50.2459C6.01387 44.3986 5.38016 37.9645 6.61489 31.7571C7.84962 25.5497 10.8973 19.8479 15.3726 15.3726C19.8479 10.8973 25.5497 7.8496 31.7571 6.61487C37.9645 5.38014 44.3986 6.01385 50.2459 8.43585C56.0931 10.8579 61.0908 14.9594 64.607 20.2218C68.1232 25.4841 70 31.671 70 38C70 46.4869 66.6286 54.6263 60.6274 60.6274C54.6263 66.6286 46.4869 70 38 70ZM38 18C32.56 18 28.42 20.29 26.76 24C26.2587 24.9993 25.9985 26.1021 26 27.22C25.963 27.5771 26.0056 27.938 26.1248 28.2767C26.2439 28.6154 26.4367 28.9235 26.6891 29.1788C26.9416 29.4341 27.2474 29.6303 27.5848 29.7533C27.9221 29.8762 28.2825 29.9229 28.64 29.89C30 29.89 30.84 29.29 31.39 27.61C31.7295 26.2151 32.5531 24.9861 33.7142 24.1419C34.8753 23.2976 36.2984 22.8929 37.73 23C41.35 23 43.82 25.2 43.82 28.41C43.82 31.08 42.65 32.71 39.36 34.7C35.82 36.82 34.14 39.13 34.14 42.62V43.24C34.14 45.04 35.14 46.43 36.99 46.43C38.84 46.43 39.58 45.28 39.71 43.54C39.85 40.87 40.78 39.54 44.29 37.42C47.8 35.3 50 32.42 50 28.17C50 22.16 45.07 18 38 18ZM40.4299 54.5C40.4299 56.433 38.8629 58 36.9299 58C34.9969 58 33.4299 56.433 33.4299 54.5C33.4299 52.567 34.9969 51 36.9299 51C38.8629 51 40.4299 52.567 40.4299 54.5Z" fill="#FFBC00"/>
</g>
</svg>
