<svg width="16" height="16" viewBox="0 0 16 16" fill="none" xmlns="http://www.w3.org/2000/svg">
<path d="M10.0409 0.599609H3.92087C2.79087 0.599609 1.88086 1.48961 1.88086 2.57961V13.4196C1.88086 14.5096 2.79087 15.3996 3.92087 15.3996H8.00587M14.1309 4.55961V8.98961" stroke="white" stroke-width="1.2" stroke-linecap="round" stroke-linejoin="round"/>
<path d="M10.041 0.599609V4.55961H14.121L10.041 0.599609Z" stroke="white" stroke-width="1.2" stroke-linecap="round" stroke-linejoin="round"/>
<path d="M4.83984 7.88086H11.3198" stroke="white" stroke-width="1.2" stroke-linecap="round" stroke-linejoin="round"/>
<path d="M4.83984 10.7695H7.66983" stroke="white" stroke-width="1.2" stroke-linecap="round" stroke-linejoin="round"/>
<path d="M14.31 11.6H13.86C13.76 11.35 13.75 11.34 13.65 11.09L13.97 10.77C14.12 10.62 14.12 10.39 13.97 10.24L13.45 9.72C13.3 9.57 13.07 9.57 12.92 9.72L12.6 10.04C12.35 9.94 12.34 9.93 12.09 9.83V9.38C12.09 9.17 11.92 9 11.71 9H10.98C10.77 9 10.6 9.17 10.6 9.38V9.83C10.35 9.93 10.34 9.94 10.09 10.04L9.77 9.72C9.62 9.57 9.39 9.57 9.24 9.72L8.72 10.24C8.57 10.39 8.57 10.62 8.72 10.77L9.04 11.09C8.94 11.34 8.93 11.35 8.83 11.6H8.38C8.17 11.6 8 11.77 8 11.98V12.71C8 12.92 8.17 13.09 8.38 13.09H8.83C8.93 13.34 8.94 13.35 9.04 13.6L8.72 13.92C8.57 14.07 8.57 14.3 8.72 14.45L9.24 14.97C9.39 15.12 9.62 15.12 9.77 14.97L10.09 14.65C10.34 14.75 10.35 14.76 10.6 14.86V15.31C10.6 15.52 10.77 15.69 10.98 15.69H11.71C11.92 15.69 12.09 15.52 12.09 15.31V14.86C12.34 14.76 12.35 14.75 12.6 14.65L12.92 14.97C13.07 15.12 13.3 15.12 13.45 14.97L13.97 14.45C14.12 14.3 14.12 14.07 13.97 13.92L13.65 13.6C13.75 13.35 13.76 13.34 13.86 13.09H14.31C14.52 13.09 14.69 12.92 14.69 12.71V11.98C14.69 11.77 14.52 11.6 14.31 11.6ZM11.35 13.17C10.89 13.17 10.52 12.8 10.52 12.34C10.52 11.88 10.89 11.51 11.35 11.51C11.81 11.51 12.18 11.88 12.18 12.34C12.18 12.8 11.81 13.17 11.35 13.17Z" fill="white"/>
</svg>
