<svg width="24" height="24" viewBox="0 0 24 24" fill="none" xmlns="http://www.w3.org/2000/svg">
<path fill-rule="evenodd" clip-rule="evenodd" d="M5.75 2.00488H18.25C19.2446 2.00488 20.1984 2.39997 20.9017 3.10323C21.6049 3.80649 22 4.76032 22 5.75488V14.7549C22 15.2473 21.903 15.735 21.7145 16.1899C21.5261 16.6449 21.2499 17.0583 20.9017 17.4065C20.5534 17.7548 20.14 18.031 19.6851 18.2194C19.2301 18.4079 18.7425 18.5049 18.25 18.5049H15.05C15.21 19.8049 15.75 20.5049 16 20.5049H17.25C17.4489 20.5049 17.6397 20.5839 17.7803 20.7246C17.921 20.8652 18 21.056 18 21.2549C18 21.4538 17.921 21.6446 17.7803 21.7852C17.6397 21.9259 17.4489 22.0049 17.25 22.0049H6.75C6.55109 22.0049 6.36032 21.9259 6.21967 21.7852C6.07902 21.6446 6 21.4538 6 21.2549C6 21.056 6.07902 20.8652 6.21967 20.7246C6.36032 20.5839 6.55109 20.5049 6.75 20.5049H8C8.3 20.5049 8.84 19.8049 9 18.5049H5.75C4.75544 18.5049 3.80161 18.1098 3.09835 17.4065C2.75013 17.0583 2.47391 16.6449 2.28545 16.1899C2.097 15.735 2 15.2473 2 14.7549V5.75488C2 4.76032 2.39509 3.80649 3.09835 3.10323C3.80161 2.39997 4.75544 2.00488 5.75 2.00488ZM4.15901 4.16389C3.73705 4.58585 3.5 5.15815 3.5 5.75488V14.0049H20.5V5.75488C20.5 5.15815 20.2629 4.58585 19.841 4.16389C19.419 3.74194 18.8467 3.50488 18.25 3.50488H5.75C5.15326 3.50488 4.58097 3.74194 4.15901 4.16389ZM9.92 20.5049H14.08C13.7854 19.8746 13.6027 19.1978 13.54 18.5049H10.46C10.3973 19.1978 10.2146 19.8746 9.92 20.5049ZM5.75 17.0049H18.25C18.7137 17.004 19.1657 16.8592 19.5436 16.5906C19.9216 16.3219 20.2068 15.9426 20.36 15.5049H3.64C3.79319 15.9426 4.07843 16.3219 4.45636 16.5906C4.8343 16.8592 5.2863 17.004 5.75 17.0049ZM14.4899 7.45495C14.4516 8.01377 14.2576 8.5507 13.9299 9.00495C14.7669 9.45292 15.442 10.1525 15.8599 11.005C15.9616 11.2202 16.0076 11.4575 15.9936 11.6952C15.9796 11.9328 15.9061 12.1631 15.7799 12.365C15.6619 12.5593 15.4961 12.7202 15.2983 12.8322C15.1005 12.9443 14.8772 13.0038 14.6499 13.005H9.34988C9.12348 13.0048 8.90086 12.9469 8.70311 12.8366C8.50537 12.7264 8.33904 12.5675 8.21988 12.375C8.09186 12.172 8.01738 11.9398 8.00339 11.7003C7.9894 11.4607 8.03636 11.2215 8.13988 11.005C8.55775 10.1525 9.23287 9.45292 10.0699 9.00495C9.73678 8.55572 9.53589 8.02231 9.48988 7.46495V7.08495V6.91495C9.49916 6.25191 9.77146 5.61971 10.2469 5.15744C10.7223 4.69516 11.3618 4.44067 12.0249 4.44995C12.3532 4.45455 12.6774 4.52376 12.9789 4.65365C13.2805 4.78353 13.5535 4.97154 13.7824 5.20693C14.0113 5.44233 14.1916 5.72051 14.313 6.02558C14.4344 6.33065 14.4945 6.65665 14.4899 6.98495C14.4941 7.02484 14.4941 7.06506 14.4899 7.10495V7.45495ZM11.2928 6.29785C11.1052 6.48538 10.9999 6.73974 10.9999 7.00495C10.9983 7.09507 11.0016 7.1852 11.0099 7.27495C11.0117 7.46181 11.0507 7.64645 11.1245 7.81812C11.1983 7.98979 11.3055 8.14508 11.4399 8.27495C11.5918 8.41696 11.7919 8.49595 11.9999 8.49595C12.2078 8.49595 12.408 8.41696 12.5599 8.27495C12.8222 8.02589 12.9796 7.6861 12.9999 7.32495V7.00495C12.9999 6.73974 12.8945 6.48538 12.707 6.29785C12.5194 6.11031 12.2651 6.00495 11.9999 6.00495C11.7347 6.00495 11.4803 6.11031 11.2928 6.29785ZM10.5784 10.4205C10.1507 10.6845 9.80223 11.0592 9.56988 11.505H14.4699C14.2284 11.0581 13.8724 10.6837 13.4383 10.42C13.0042 10.1564 12.5077 10.0131 11.9999 10.005C11.4973 10.0129 11.0062 10.1565 10.5784 10.4205Z" fill="white"/>
</svg>
