<svg width="76" height="76" viewBox="0 0 76 76" fill="none" xmlns="http://www.w3.org/2000/svg">
<g id="Icon for Modal Alert">
<path id="Info" fill-rule="evenodd" clip-rule="evenodd" d="M38 0C30.4843 0 23.1374 2.22866 16.8883 6.40415C10.6393 10.5796 5.76872 16.5144 2.89259 23.458C0.0164647 30.4016 -0.736062 38.0422 0.730176 45.4134C2.19641 52.7847 5.81556 59.5557 11.13 64.8701C16.4444 70.1844 23.2153 73.8036 30.5866 75.2698C37.9579 76.7361 45.5984 75.9836 52.542 73.1074C59.4856 70.2313 65.4204 65.3607 69.5959 59.1117C73.7714 52.8626 76 45.5157 76 38C76 27.9218 71.9965 18.2563 64.8701 11.1299C57.7437 4.00356 48.0782 0 38 0ZM38 70C31.671 70 25.4841 68.1232 20.2218 64.607C14.9594 61.0908 10.8579 56.0931 8.43587 50.2459C6.01387 44.3986 5.38016 37.9645 6.61489 31.7571C7.84962 25.5497 10.8973 19.8479 15.3726 15.3726C19.8479 10.8973 25.5497 7.8496 31.7571 6.61487C37.9645 5.38014 44.3986 6.01385 50.2459 8.43585C56.0931 10.8579 61.0908 14.9594 64.607 20.2218C68.1232 25.4841 70 31.671 70 38C70 46.4869 66.6286 54.6263 60.6274 60.6274C54.6263 66.6286 46.4869 70 38 70ZM38 32C37.2043 32 36.4413 32.3161 35.8787 32.8787C35.3161 33.4413 35 34.2043 35 35V55C35 55.7957 35.3161 56.5587 35.8787 57.1213C36.4413 57.6839 37.2043 58 38 58C38.7957 58 39.5587 57.6839 40.1213 57.1213C40.6839 56.5587 41 55.7957 41 55V35C41 34.2043 40.6839 33.4413 40.1213 32.8787C39.5587 32.3161 38.7957 32 38 32ZM41.5 21.5C41.5 23.433 39.933 25 38 25C36.067 25 34.5 23.433 34.5 21.5C34.5 19.567 36.067 18 38 18C39.933 18 41.5 19.567 41.5 21.5Z" fill="#007AFF"/>
</g>
</svg>
