<svg width="149" height="25" viewBox="0 0 149 25" fill="none" xmlns="http://www.w3.org/2000/svg">
<path d="M43.9043 5.25038L40.999 12.948L39.8627 5.26247L37.0662 5.27457L33.0005 12.9762L33.0247 5.28667L29.5432 5.3028L29.5352 19.7423L32.932 19.7343L37.2597 11.581L38.5169 19.7101L41.9137 19.698L47.3857 5.23828L43.9043 5.25038Z" fill="white"/>
<path d="M53.7483 5.09677C51.0848 5.10483 47.6678 6.38709 46.5073 12.4314C45.3508 18.4718 48.2843 19.7298 50.9437 19.7218C53.6032 19.7097 57.0242 18.4314 58.1807 12.3871C59.3371 6.34273 56.4077 5.08467 53.7442 5.09677M51.5119 16.7379C51.0122 16.7419 49.481 16.746 50.3071 12.4153C51.1371 8.0887 52.6724 8.08064 53.172 8.0766C53.6797 8.0766 55.2069 8.07257 54.3809 12.3992C53.5508 16.7258 52.0196 16.7339 51.5119 16.7339" fill="white"/>
<path d="M66.7389 5.09677C64.0754 5.10483 60.6624 6.38709 59.4979 12.4314C58.3455 18.4718 61.2789 19.7298 63.9344 19.7218C66.5978 19.7137 70.0148 18.4314 71.1713 12.3871C72.3318 6.34677 69.3983 5.08467 66.7348 5.09677M64.5025 16.7379C64.0028 16.7419 62.4676 16.746 63.2977 12.4153C64.1278 8.0887 65.659 8.08064 66.1627 8.0766C66.6663 8.0766 68.1975 8.07257 67.3715 12.3992C66.5414 16.7258 65.0062 16.7339 64.5025 16.7339" fill="white"/>
<path d="M80.4796 14.0367C82.2325 13.0448 83.393 11.1174 83.393 8.62945C83.393 4.94396 79.0129 5.3109 79.0129 5.3109H74.4677L71.4375 19.6819H74.8263L75.8256 14.7706H77.1473C77.5542 14.8391 78.1143 15.0851 78.1949 15.8915C78.3239 17.1859 78.5173 19.7424 78.5173 19.7424H81.9262C81.9262 19.7424 81.624 16.2343 81.5394 15.702C81.4548 15.1738 81.2896 14.4359 80.4877 14.0367M77.3004 7.97219C78.2272 7.97219 80.4434 7.23025 80.0606 9.85525C79.6778 12.4803 76.5066 12.1415 76.5066 12.1415L77.3004 7.96816V7.97219Z" fill="white"/>
<path d="M83.3496 19.7504L87.1736 19.7383L89.9418 5.29883L86.1138 5.31093L83.3496 19.7504Z" fill="white"/>
<path d="M148.138 5.25H143.718L138.25 10.5645L139.285 5.25H135.429L132.572 19.7944H136.437L137.617 13.7621L141.03 19.7944H145.729L141.091 12.004L148.138 5.25Z" fill="white"/>
<path d="M106.325 9.06478C106.78 6.70188 105.414 5.29462 102.67 5.30672L96.1138 5.32285L93.3496 19.7462L99.9096 19.7301C103.234 19.722 105.196 18.2583 105.744 15.3914C106.051 13.7946 105.652 12.5769 104.62 11.9075C105.523 11.218 106.095 10.2664 106.325 9.06882M102.275 15.222C102.102 16.1454 101.658 16.718 100.039 16.8067V16.8148H99.9539C99.829 16.8188 99.7041 16.8269 99.5671 16.8269H99.4099V16.8148H97.4959L98.1245 13.5366H100.196C102.605 13.5245 102.392 14.6293 102.271 15.222M102.762 9.45591C102.589 10.3591 102.283 10.6575 101.268 10.7261H98.6403L99.1239 8.22607H101.243C102.855 8.21801 102.94 8.54059 102.762 9.45994" fill="white"/>
<path d="M130.099 5.29883L128.609 13.5569L125.607 5.29883H121.972L119.184 19.7504L122.56 19.6617L124.212 10.9158L127.222 19.7504H130.631L133.42 5.29883H130.099Z" fill="white"/>
<path d="M112.91 5.29883L104.686 19.7504H108.566L110.093 16.9964L114.554 17.0287L114.872 19.7504H118.47L116.274 5.29883H112.906H112.91ZM111.632 14.2464L113.808 9.98834L114.324 14.2504H111.632V14.2464Z" fill="white"/>
<path d="M25 12.5C25 19.4019 19.3998 25 12.5042 25C5.60855 25 0 19.3998 0 12.5C0 5.60022 5.59813 0 12.5042 0C19.4102 0 25 5.60022 25 12.5Z" fill="white"/>
<path d="M12.5049 24.3693C19.0839 24.3693 24.4197 19.0357 24.4197 12.4587C24.4197 5.88175 19.0839 0.543945 12.5049 0.543945C5.92582 0.543945 0.585938 5.87758 0.585938 12.4587C0.585938 19.0399 5.92166 24.3693 12.5049 24.3693Z" fill="#0078BA"/>
<mask id="mask0_102_1994" style="mask-type:alpha" maskUnits="userSpaceOnUse" x="0" y="0" width="25" height="25">
<path d="M12.5049 24.3693C19.0839 24.3693 24.4197 19.0357 24.4197 12.4587C24.4197 5.88175 19.0839 0.543945 12.5049 0.543945C5.92582 0.543945 0.585938 5.87758 0.585938 12.4587C0.585938 19.0399 5.92166 24.3693 12.5049 24.3693Z" fill="#0078BA"/>
</mask>
<g mask="url(#mask0_102_1994)">
<path d="M12.5502 18.2091C17.7839 18.2091 22.272 19.6649 24.1963 21.7392C24.8399 20.2564 25.1918 18.6236 25.1918 16.9158C25.1918 10.0785 19.5291 4.54492 12.5481 4.54492C5.56712 4.54492 -0.0976562 10.0827 -0.0976562 16.9179C-0.0976562 18.6298 0.258475 20.2564 0.904093 21.7392C2.81804 19.6628 7.31237 18.2091 12.5481 18.2091H12.5502Z" fill="#0078BA"/>
<path d="M12.5501 18.2218C17.7713 18.2218 22.2469 19.6651 24.1671 21.7248C24.8085 20.2545 25.1605 18.6342 25.1605 16.941C25.1605 10.1599 19.5124 4.65137 12.5501 4.65137C5.58783 4.65137 -0.0644531 10.162 -0.0644531 16.9431C-0.0644531 18.6425 0.289596 20.2545 0.935214 21.7248C2.84499 19.6651 7.32683 18.2218 12.5501 18.2218V18.2218Z" fill="#007ABB"/>
<path d="M12.5479 18.2337C17.7545 18.2337 22.2197 19.6645 24.1357 21.7076C24.7751 20.2497 25.127 18.6419 25.127 16.9612C25.127 10.2343 19.4935 4.75488 12.55 4.75488C5.60645 4.75488 -0.03125 10.2385 -0.03125 16.9654C-0.03125 18.6503 0.322799 20.2497 0.966334 21.7076C2.87195 19.6645 7.34129 18.2337 12.5521 18.2337H12.5479Z" fill="#007CBD"/>
<path d="M12.5461 18.2485C17.7402 18.2485 22.1929 19.6689 24.1026 21.6932C24.742 20.2479 25.0919 18.6526 25.0919 16.9865C25.0919 10.3158 19.4729 4.86133 12.5461 4.86133C5.61922 4.86133 -0.00390625 10.3178 -0.00390625 16.9885C-0.00390625 18.6588 0.350142 20.2458 0.991595 21.6932C2.89304 19.6668 7.35197 18.2485 12.5461 18.2485Z" fill="#007EBE"/>
<path d="M12.5439 18.2613C17.7234 18.2613 22.1677 19.6691 24.0713 21.6789C24.7086 20.2439 25.0584 18.6632 25.0584 17.0096C25.0584 10.393 19.4541 4.96777 12.546 4.96777C5.63784 4.96777 0.0292969 10.3972 0.0292969 17.0138C0.0292969 18.6715 0.381262 20.246 1.02063 21.6789C2.91583 19.6691 7.36435 18.2613 12.546 18.2613H12.5439Z" fill="#0080C0"/>
<path d="M12.5441 18.2741C17.7112 18.2741 22.143 19.6695 24.0403 21.6626C24.6755 20.2401 25.0233 18.674 25.0233 17.0329C25.0233 10.4705 19.4335 5.07227 12.5421 5.07227C5.65061 5.07227 0.0566406 10.4725 0.0566406 17.0349C0.0566406 18.6781 0.408607 20.2401 1.04589 21.6626C2.93693 19.6695 7.37295 18.2741 12.5421 18.2741H12.5441Z" fill="#0082C2"/>
<path d="M12.5419 18.2879C17.6944 18.2879 22.1158 19.6729 24.009 21.6472C24.6421 20.2373 24.9899 18.6837 24.9899 17.0571C24.9899 10.5509 19.4147 5.17773 12.5419 5.17773C5.66924 5.17773 0.0898438 10.5509 0.0898438 17.0592C0.0898438 18.6899 0.439728 20.2373 1.07702 21.6472C2.96389 19.6708 7.38741 18.2879 12.5419 18.2879V18.2879Z" fill="#0084C3"/>
<path d="M12.54 18.3007C17.68 18.3007 22.0889 19.6731 23.9778 21.6329C24.611 20.2354 24.9567 18.6943 24.9567 17.0803C24.9567 10.6282 19.396 5.28418 12.54 5.28418C5.68395 5.28418 0.119141 10.6303 0.119141 17.0823C0.119141 18.6985 0.469025 20.2334 1.10423 21.6308C2.98485 19.6711 7.39796 18.2986 12.54 18.2986V18.3007Z" fill="#0086C5"/>
<path d="M12.5399 18.3135C17.6653 18.3135 22.0638 19.6735 23.9465 21.6166C24.5775 20.2296 24.9233 18.703 24.9233 17.1035C24.9233 10.7057 19.3772 5.38867 12.5399 5.38867C5.70258 5.38867 0.152344 10.7077 0.152344 17.1056C0.152344 18.7071 0.500144 20.2296 1.13327 21.6166C3.00972 19.6735 7.41034 18.3135 12.5399 18.3135Z" fill="#0088C6"/>
<path d="M12.5379 18.3282C17.6508 18.3282 22.0369 19.6778 23.9154 21.6021C24.5444 20.2276 24.8901 18.7135 24.8901 17.1286C24.8901 10.787 19.3586 5.49707 12.5379 5.49707C5.7173 5.49707 0.181641 10.7891 0.181641 17.1307C0.181641 18.7197 0.529441 20.2297 1.16048 21.6021C3.03277 19.6757 7.42298 18.3282 12.5359 18.3282H12.5379Z" fill="#008AC8"/>
<path d="M12.5359 18.3401C17.6342 18.3401 22.0098 19.6771 23.8821 21.5869C24.509 20.2249 24.8547 18.7233 24.8547 17.1509C24.8547 10.8634 19.3378 5.60059 12.5359 5.60059C5.73397 5.60059 0.212891 10.8655 0.212891 17.153C0.212891 18.7275 0.558609 20.2249 1.18965 21.5869C3.05569 19.6771 7.43548 18.3401 12.5359 18.3401V18.3401Z" fill="#008CCA"/>
<path d="M12.5339 18.3529C17.6197 18.3529 21.9829 19.6775 23.851 21.5706C24.4779 20.2211 24.8215 18.732 24.8215 17.1742C24.8215 10.9408 19.3192 5.70508 12.5339 5.70508C5.74868 5.70508 0.242188 10.9429 0.242188 17.1763C0.242188 18.7362 0.587906 20.2211 1.21686 21.5706C3.07874 19.6775 7.44603 18.3529 12.5339 18.3529V18.3529Z" fill="#008FCB"/>
<path d="M12.5338 18.3676C17.605 18.3676 21.9577 19.6818 23.8217 21.5561C24.4465 20.2191 24.788 18.7425 24.788 17.1993C24.788 11.0222 19.3003 5.81348 12.5338 5.81348C5.76731 5.81348 0.275391 11.0242 0.275391 17.2013C0.275391 18.7487 0.62111 20.2191 1.24798 21.5582C3.1057 19.6818 7.4605 18.3697 12.5359 18.3697L12.5338 18.3676Z" fill="#0091CD"/>
<path d="M12.532 18.3795C17.5907 18.3795 21.9309 19.6812 23.7887 21.541C24.4114 20.2143 24.7529 18.7523 24.7529 17.2216C24.7529 11.0986 19.2797 5.91699 12.5299 5.91699C5.78007 5.91699 0.302734 11.1007 0.302734 17.2236C0.302734 18.7565 0.64637 20.2143 1.27116 21.541C3.12263 19.6812 7.46701 18.3795 12.5278 18.3795H12.532Z" fill="#0093CF"/>
<path d="M12.5298 18.3922C17.5739 18.3922 21.9037 19.6814 23.7573 21.5245C24.3779 20.2104 24.7195 18.7609 24.7195 17.2447C24.7195 11.178 19.2609 6.02344 12.5298 6.02344C5.7987 6.02344 0.335938 11.1801 0.335938 17.2468C0.335938 18.765 0.679573 20.2104 1.30228 21.5245C3.14958 19.6814 7.48147 18.3922 12.5298 18.3922Z" fill="#0095D0"/>
<path d="M12.5277 18.407C17.5594 18.407 21.8767 19.6858 23.7261 21.5102C24.3467 20.2085 24.6862 18.7715 24.6862 17.2699C24.6862 11.2573 19.2421 6.12988 12.5298 6.12988C5.81745 6.12988 0.367188 11.2594 0.367188 17.272C0.367188 18.7778 0.708741 20.2106 1.33145 21.5123C3.17459 19.6858 7.49606 18.4091 12.5298 18.4091L12.5277 18.407Z" fill="#0097D2"/>
<path d="M12.5277 18.4199C17.5448 18.4199 21.8517 19.6861 23.6948 21.496C24.3134 20.2068 24.6528 18.7823 24.6528 17.2932C24.6528 11.3348 19.2234 6.23438 12.5277 6.23438C5.83204 6.23438 0.398438 11.3368 0.398438 17.2932C0.398438 18.7844 0.739991 20.2047 1.36062 21.4939C3.19959 19.6841 7.50857 18.4178 12.5277 18.4178V18.4199Z" fill="#009AD4"/>
<path d="M12.5255 18.4316C17.5301 18.4316 21.8245 19.6854 23.6635 21.4785C24.2799 20.1998 24.6194 18.7899 24.6194 17.3153C24.6194 11.4132 19.2045 6.33984 12.5276 6.33984C5.85067 6.33984 0.431641 11.4152 0.431641 17.3174C0.431641 18.7961 0.771112 20.2019 1.38966 21.4806C3.22238 19.6875 7.52094 18.4337 12.5276 18.4337L12.5255 18.4316Z" fill="#009CD6"/>
<path d="M12.5237 18.4466C17.5158 18.4466 21.7977 19.6899 23.6304 21.4643C24.2448 20.1981 24.5843 18.8006 24.5843 17.3386C24.5843 11.4906 19.184 6.44434 12.5237 6.44434C5.86343 6.44434 0.458984 11.4906 0.458984 17.3386C0.458984 18.8027 0.798454 20.196 1.41491 21.4622C3.24347 19.6858 7.52954 18.4445 12.5237 18.4445V18.4466Z" fill="#009ED7"/>
<path d="M12.5236 18.4592C17.5011 18.4592 21.7726 19.69 23.6012 21.4499C24.2155 20.1961 24.5508 18.8111 24.5508 17.3637C24.5508 11.5698 19.1651 6.55273 12.5236 6.55273C5.88206 6.55273 0.492188 11.5719 0.492188 17.3658C0.492188 18.8153 0.829575 20.1961 1.44604 21.4499C3.27043 19.69 7.54401 18.4592 12.5257 18.4592H12.5236Z" fill="#00A1D9"/>
<path d="M12.5216 18.4711C17.4867 18.4711 21.7457 19.6894 23.57 21.4326C24.1823 20.1913 24.5176 18.8209 24.5176 17.386C24.5176 11.6483 19.1465 6.65625 12.5216 6.65625C5.89678 6.65625 0.521484 11.6483 0.521484 17.3881C0.521484 18.8251 0.858872 20.1934 1.47325 21.4347C3.29139 19.6915 7.55456 18.4731 12.5216 18.4731V18.4711Z" fill="#00A3DB"/>
<path d="M12.5196 18.486C17.47 18.486 21.7186 19.6939 23.5367 21.4184C24.147 20.1875 24.4823 18.8317 24.4823 17.4093C24.4823 11.7258 19.1257 6.76074 12.5196 6.76074C5.91345 6.76074 0.552734 11.7258 0.552734 17.4093C0.552734 18.8317 0.88804 20.1875 1.50034 21.4163C3.31431 19.6898 7.56498 18.4839 12.5196 18.4839V18.486Z" fill="#00A6DD"/>
<path d="M12.5176 18.4987C17.4556 18.4987 21.6937 19.6942 23.5056 21.4019C24.1138 20.1836 24.4491 18.8403 24.4491 17.4324C24.4491 11.803 19.1071 6.86719 12.5176 6.86719C5.92816 6.86719 0.582031 11.8051 0.582031 17.4345C0.582031 18.8424 0.917336 20.1857 1.52755 21.404C3.33736 19.6942 7.57761 18.5008 12.5176 18.5008V18.4987Z" fill="#00A8DF"/>
<path d="M12.5175 18.5115C17.4409 18.5115 21.6686 19.6944 23.4743 21.3876C24.0824 20.1817 24.4156 18.8509 24.4156 17.4576C24.4156 11.8845 19.0882 6.97363 12.5175 6.97363C5.94679 6.97363 0.615234 11.8845 0.615234 17.4576C0.615234 18.853 0.950539 20.1817 1.55867 21.3876C3.36223 19.6944 7.59207 18.5115 12.5175 18.5115V18.5115Z" fill="#00ABE1"/>
<path d="M12.5156 18.5253C17.4264 18.5253 21.6417 19.6978 23.4432 21.3723C24.0492 20.1789 24.3824 18.8606 24.3824 17.4798C24.3824 11.9608 19.0696 7.0791 12.5156 7.0791C5.96151 7.0791 0.644531 11.9629 0.644531 17.4819C0.644531 18.8627 0.977753 20.1789 1.58588 21.3723C3.38528 19.6957 7.60263 18.5253 12.5156 18.5253Z" fill="#00ADE3"/>
<path d="M12.5135 18.5381C17.4098 18.5381 21.6146 19.6982 23.4119 21.356C24.0159 20.1751 24.3471 18.8693 24.3471 17.5031C24.3471 12.0382 19.0488 7.18359 12.5135 7.18359C5.97818 7.18359 0.675781 12.0403 0.675781 17.5031C0.675781 18.8693 1.009 20.173 1.61297 21.356C3.4082 19.6961 7.61305 18.5381 12.5135 18.5381V18.5381Z" fill="#00B0E5"/>
<path d="M12.5136 18.5509C17.3974 18.5509 21.5898 19.6984 23.3809 21.3416C23.9848 20.1712 24.3139 18.8799 24.3139 17.5283C24.3139 12.1197 19.0302 7.29004 12.5116 7.29004C5.9929 7.29004 0.705078 12.1197 0.705078 17.5283C0.705078 18.882 1.03622 20.1732 1.64018 21.3416C3.42917 19.6984 7.62361 18.5509 12.5095 18.5509H12.5136Z" fill="#00B3E7"/>
<path d="M12.5114 18.5657C17.3806 18.5657 21.5626 19.7028 23.3495 21.3273C23.9514 20.1693 24.2804 18.8906 24.2804 17.5514C24.2804 12.197 19.0114 7.39648 12.5114 7.39648C6.01152 7.39648 0.738281 12.1991 0.738281 17.5514C0.738281 18.8906 1.06942 20.1693 1.6713 21.3273C3.45613 19.7007 7.63806 18.5657 12.5114 18.5657Z" fill="#00B5E9"/>
<path d="M12.5095 18.5776C17.3662 18.5776 21.5357 19.7022 23.3163 21.31C23.9161 20.1645 24.2452 18.8983 24.2452 17.5737C24.2452 12.2755 18.9907 7.5 12.5095 7.5C6.02833 7.5 0.767578 12.2755 0.767578 17.5737C0.767578 18.8983 1.09664 20.1645 1.69852 21.31C3.47917 19.7001 7.6507 18.5776 12.5095 18.5776V18.5776Z" fill="#08B9EB"/>
<path d="M12.5074 18.5904C17.3496 18.5904 21.5086 19.7025 23.2851 21.2958C23.8828 20.1628 24.2119 18.9091 24.2119 17.597C24.2119 12.3529 18.9719 7.60449 12.5074 7.60449C6.04291 7.60449 0.798828 12.3529 0.798828 17.597C0.798828 18.9091 1.12788 20.1607 1.72768 21.2937C3.50209 19.7005 7.66321 18.5883 12.5095 18.5883L12.5074 18.5904Z" fill="#15BCED"/>
<path d="M12.5073 18.6051C17.3369 18.6051 21.4835 19.7068 23.2558 21.2813C23.8535 20.1587 24.1805 18.9196 24.1805 17.6221C24.1805 12.4321 18.9552 7.71289 12.5094 7.71289C6.06362 7.71289 0.832031 12.4321 0.832031 17.6221C0.832031 18.9196 1.159 20.1587 1.75672 21.2813C3.52696 19.7047 7.67558 18.6051 12.5073 18.6051V18.6051Z" fill="#1DBFF0"/>
<path d="M12.5054 18.617C17.3204 18.617 21.4565 19.7062 23.2226 21.264C23.8183 20.154 24.1452 18.9273 24.1452 17.6444C24.1452 12.5107 18.9345 7.81641 12.5054 7.81641C6.07625 7.81641 0.861328 12.5086 0.861328 17.6444C0.861328 18.9294 1.1883 20.154 1.78394 21.264C3.55001 19.7041 7.68614 18.617 12.5054 18.617Z" fill="#22C4F4"/>
<path d="M12.5045 18.649C17.3133 18.649 21.4431 19.7319 23.2071 21.2793C23.8007 20.1776 24.1277 18.9593 24.1277 17.6826C24.1277 12.5822 18.9232 7.91504 12.5045 7.91504C6.08576 7.91504 0.875 12.5802 0.875 17.6826C0.875 18.9593 1.20197 20.1776 1.79553 21.2793C3.55952 19.7298 7.6894 18.649 12.5024 18.649H12.5045Z" fill="#33C6F4"/>
<path d="M12.5035 18.678C17.3061 18.678 21.4297 19.7527 23.1917 21.2917C23.7852 20.1963 24.1101 18.9862 24.1101 17.7179C24.1101 12.6509 18.9139 8.01074 12.5015 8.01074C6.08902 8.01074 0.888672 12.6488 0.888672 17.7179C0.888672 18.9862 1.21565 20.1963 1.8092 21.2917C3.57111 19.7527 7.69682 18.678 12.5015 18.678H12.5035Z" fill="#40C7F4"/>
<path d="M12.5043 18.7089C17.3007 18.7089 21.4201 19.7773 23.1779 21.306C23.7693 20.2167 24.0963 19.0151 24.0963 17.7571C24.0963 12.7234 18.9064 8.11035 12.5043 8.11035C6.1023 8.11035 0.908203 12.7213 0.908203 17.7571C0.908203 19.0171 1.2331 20.2188 1.82665 21.306C3.58648 19.7773 7.70594 18.7089 12.5043 18.7089Z" fill="#4BC9F5"/>
<path d="M12.5034 18.738C17.2935 18.738 21.4067 19.798 23.1624 21.3184C23.7538 20.2375 24.0787 19.042 24.0787 17.7924C24.0787 12.792 18.895 8.20605 12.5034 8.20605C6.11181 8.20605 0.921875 12.7899 0.921875 17.7924C0.921875 19.0441 1.24677 20.2375 1.83824 21.3184C3.59598 19.8001 7.7092 18.74 12.5034 18.738V18.738Z" fill="#55CAF5"/>
<path d="M12.5043 18.7691C17.2882 18.7691 21.3951 19.8229 23.1508 21.3307C23.7402 20.2561 24.0651 19.0711 24.0651 17.8277C24.0651 12.8607 18.8897 8.30176 12.5043 8.30176C6.11898 8.30176 0.939453 12.8607 0.939453 17.8277C0.939453 19.0711 1.26435 20.2561 1.85581 21.3307C3.6094 19.8229 7.71844 18.7691 12.5064 18.7691H12.5043Z" fill="#5DCCF5"/>
<path d="M12.5053 18.7982C17.2828 18.7982 21.3836 19.8457 23.1371 21.3431C23.7265 20.2768 24.0514 19.0981 24.0514 17.8631C24.0514 12.9293 18.8823 8.39746 12.5073 8.39746C6.13239 8.39746 0.957031 12.9293 0.957031 17.8631C0.957031 19.0981 1.28192 20.2748 1.87131 21.3431C3.62281 19.8457 7.72769 18.7982 12.5073 18.7982H12.5053Z" fill="#65CEF6"/>
<path d="M12.5044 18.83C17.2757 18.83 21.3701 19.8693 23.1216 21.3583C23.7089 20.2983 24.0338 19.1278 24.0338 17.9032C24.0338 13.0028 18.871 8.49805 12.5044 8.49805C6.13773 8.49805 0.970703 13.0028 0.970703 17.9032C0.970703 19.1299 1.29559 20.2983 1.8829 21.3583C3.63231 19.8693 7.73095 18.83 12.5044 18.83Z" fill="#6DCFF6"/>
<path d="M12.5034 18.8591C17.2664 18.8591 21.3567 19.8921 23.1062 21.3707C23.6914 20.319 24.0163 19.1548 24.0163 17.9386C24.0163 13.0714 18.8617 8.59375 12.5034 8.59375C6.14515 8.59375 0.984375 13.0714 0.984375 17.9386C0.984375 19.1569 1.30927 20.319 1.89449 21.3707C3.64182 19.8921 7.73421 18.8591 12.5014 18.8591H12.5034Z" fill="#74D1F6"/>
<path d="M12.5042 18.8901C17.261 18.8901 21.3471 19.9168 23.0924 21.3851C23.6776 20.3396 24.0025 19.1858 24.0025 17.9758C24.0025 13.142 18.8542 8.69141 12.5063 8.69141C6.15844 8.69141 1.00391 13.142 1.00391 17.9758C1.00391 19.1858 1.32672 20.3396 1.91402 21.3851C3.65927 19.9168 7.74541 18.8922 12.5063 18.8901H12.5042Z" fill="#7BD3F7"/>
<path d="M12.5035 18.9211C17.254 18.9211 21.3339 19.9395 23.077 21.3974C23.6602 20.3602 23.985 19.2127 23.985 18.0131C23.985 13.2126 18.8451 8.78906 12.5035 8.78906C6.16182 8.78906 1.01562 13.2126 1.01562 18.0131C1.01562 19.2148 1.33843 20.3602 1.92366 21.3974C3.66682 19.9395 7.7488 18.9211 12.5035 18.9211V18.9211Z" fill="#81D4F7"/>
<path d="M12.5044 18.9502C17.2486 18.9502 21.3223 19.9623 23.0634 21.4098C23.6465 20.3789 23.9693 19.2396 23.9693 18.0484C23.9693 13.2812 18.8356 8.88477 12.5044 8.88477C6.17315 8.88477 1.0332 13.2812 1.0332 18.0484C1.0332 19.2417 1.35601 20.3789 1.93915 21.4098C3.68024 19.9623 7.75596 18.9502 12.5044 18.9502Z" fill="#88D6F8"/>
<path d="M12.5053 18.9821C17.2433 18.9821 21.3107 19.9881 23.0497 21.4251C23.6308 20.4004 23.9556 19.2695 23.9556 18.0866C23.9556 13.3528 18.8282 8.9834 12.5053 8.9834C6.1824 8.9834 1.05078 13.3528 1.05078 18.0866C1.05078 19.2737 1.37359 20.4004 1.95673 21.4251C3.69573 19.9881 7.76521 18.9821 12.5074 18.9821H12.5053Z" fill="#8ED8F8"/>
<path d="M12.5044 19.0111C17.2361 19.0111 21.2973 20.0087 23.0342 21.4374C23.6153 20.421 23.9381 19.2985 23.9381 18.1218C23.9381 13.4213 18.819 9.08105 12.5044 9.08105C6.18983 9.08105 1.06445 13.4234 1.06445 18.1218C1.06445 19.3006 1.38726 20.4189 1.96832 21.4374C3.70524 20.0107 7.76847 19.0132 12.5044 19.0111Z" fill="#95DAF8"/>
<path d="M12.5053 19.042C17.2308 19.042 21.2857 20.0333 23.0206 21.4516C23.5995 20.4415 23.9223 19.3273 23.9223 18.161C23.9223 13.4938 18.8095 9.18066 12.5053 9.18066C6.20116 9.18066 1.08203 13.4959 1.08203 18.161C1.08203 19.3314 1.40276 20.4436 1.98381 21.4516C3.71865 20.0333 7.77772 19.044 12.5053 19.042V19.042Z" fill="#9BDCF9"/>
<path d="M12.5044 19.0711C17.2237 19.0711 21.2744 20.0562 23.0051 21.462C23.584 20.4603 23.9068 19.3523 23.9068 18.1944C23.9068 13.5605 18.8002 9.27441 12.5044 9.27441C6.20858 9.27441 1.0957 13.5626 1.0957 18.1944C1.0957 19.3565 1.41643 20.4603 1.99749 21.462C3.73024 20.0542 7.78306 19.0711 12.5044 19.0711V19.0711Z" fill="#A1DEF9"/>
<path d="M12.5053 19.1022C17.2162 19.1022 21.2628 20.0789 22.9914 21.4764C23.5683 20.4809 23.8911 19.3833 23.8911 18.2316C23.8911 13.6311 18.7928 9.37207 12.5053 9.37207C6.21783 9.37207 1.11328 13.6332 1.11328 18.2316C1.11328 19.3854 1.43401 20.4809 2.01298 21.4764C3.74157 20.0789 7.79022 19.1022 12.5053 19.1022Z" fill="#A7DFF9"/>
<path d="M12.5044 19.1321C17.2091 19.1321 21.2494 20.1026 22.9759 21.4896C23.5528 20.5024 23.8735 19.4111 23.8735 18.2699C23.8735 13.7047 18.7815 9.4707 12.5044 9.4707C6.22734 9.4707 1.12695 13.7047 1.12695 18.2699C1.12695 19.4153 1.44768 20.5024 2.02457 21.4896C3.75108 20.1026 7.79348 19.1341 12.5044 19.1321Z" fill="#ADE1FA"/>
<path d="M12.5053 19.1631C17.2038 19.1631 21.2378 20.1273 22.9623 21.504C23.5371 20.523 23.8599 19.4401 23.8599 18.3071C23.8599 13.7753 18.7741 9.56836 12.5053 9.56836C6.23658 9.56836 1.14453 13.7753 1.14453 18.3071C1.14453 19.4442 1.46526 20.523 2.04007 21.504C3.76449 20.1273 7.80273 19.1652 12.5053 19.1631Z" fill="#B3E3FA"/>
<path d="M12.5044 19.1923C17.1966 19.1923 21.2244 20.1482 22.9468 21.5144C23.5216 20.5397 23.8423 19.4651 23.8423 18.3405C23.8423 13.842 18.7648 9.66211 12.5044 9.66211C6.24401 9.66211 1.1582 13.842 1.1582 18.3405C1.1582 19.4693 1.47893 20.5397 2.05374 21.5144C3.77608 20.1482 7.80807 19.1923 12.5044 19.1923Z" fill="#B9E5FB"/>
<path d="M12.5035 19.2233C17.1894 19.2233 21.2131 20.173 22.9313 21.5288C23.504 20.5624 23.8247 19.4961 23.8247 18.3777C23.8247 13.9125 18.7535 9.75977 12.5014 9.75977C6.24935 9.75977 1.17188 13.9125 1.17188 18.3777C1.17188 19.4982 1.49052 20.5603 2.06533 21.5288C3.78559 20.173 7.81133 19.2233 12.5014 19.2233H12.5035Z" fill="#BFE7FB"/>
<path d="M12.5044 19.2522C17.1841 19.2522 21.2015 20.1956 22.9176 21.541C23.4883 20.5809 23.8111 19.5229 23.8111 18.415C23.8111 13.9831 18.7461 9.85742 12.5044 9.85742C6.26276 9.85742 1.18945 13.9831 1.18945 18.415C1.18945 19.5271 1.5081 20.583 2.08082 21.541C3.799 20.1936 7.81849 19.2543 12.5023 19.2522H12.5044Z" fill="#C4E9FB"/>
<path d="M12.5053 19.2842C17.1788 19.2842 21.19 20.2193 22.904 21.5564C23.4746 20.6046 23.7953 19.5529 23.7953 18.4532C23.7953 14.0547 18.7387 9.95605 12.5053 9.95605C6.27201 9.95605 1.20703 14.0547 1.20703 18.4532C1.20703 19.557 1.52567 20.6046 2.0984 21.5564C3.81449 20.2193 7.82982 19.2863 12.5053 19.2842Z" fill="#CAEBFC"/>
<path d="M12.5043 19.3152C17.1715 19.3152 21.1764 20.2441 22.8904 21.5707C23.459 20.6252 23.7797 19.5818 23.7797 18.4905C23.7797 14.1253 18.7293 10.0537 12.5043 10.0537C6.2793 10.0537 1.22266 14.1253 1.22266 18.4905C1.22266 19.588 1.5413 20.6252 2.11194 21.5707C3.82596 20.2441 7.83504 19.3173 12.5064 19.3152H12.5043Z" fill="#CFEDFC"/>
<path d="M12.5052 19.3443C17.1641 19.3443 21.1648 20.2648 22.8768 21.581C23.4453 20.6438 23.7661 19.6088 23.7661 18.5258C23.7661 14.1939 18.7219 10.1494 12.5073 10.1494C6.29272 10.1494 1.24023 14.1939 1.24023 18.5258C1.24023 19.615 1.55888 20.6438 2.12744 21.581C3.83937 20.2648 7.8422 19.3443 12.5073 19.3443H12.5052Z" fill="#D5EFFC"/>
<path d="M12.5043 19.3753C17.1569 19.3753 21.1514 20.2896 22.8613 21.5954C23.4278 20.6644 23.7485 19.6377 23.7485 18.563C23.7485 14.2645 18.7127 10.2471 12.5043 10.2471C6.29597 10.2471 1.25391 14.2645 1.25391 18.563C1.25391 19.6439 1.57047 20.6644 2.13903 21.5954C3.84887 20.2896 7.84546 19.3774 12.5043 19.3753V19.3753Z" fill="#DBF1FD"/>
<path d="M12.5054 19.4043C17.1517 19.4043 21.1421 20.3124 22.8478 21.6078C23.4142 20.6831 23.7329 19.6647 23.7329 18.5984C23.7329 14.3331 18.7033 10.3428 12.5054 10.3428C6.30743 10.3428 1.26953 14.3331 1.26953 18.5984C1.26953 19.6709 1.58609 20.6831 2.15465 21.6078C3.86242 20.3124 7.85483 19.4064 12.5054 19.4043Z" fill="#E0F3FD"/>
<path d="M12.5042 19.4353C17.1443 19.4353 21.1284 20.335 22.832 21.6221C23.3964 20.7058 23.7171 19.6936 23.7171 18.6356C23.7171 14.4037 18.6938 10.4404 12.5063 10.4404C6.31877 10.4404 1.28711 14.4037 1.28711 18.6356C1.28711 19.6998 1.60367 20.7037 2.17015 21.6221C3.87375 20.3371 7.862 19.4374 12.5063 19.4353H12.5042Z" fill="#E6F5FD"/>
<path d="M12.5034 19.4653C17.1373 19.4653 21.1151 20.3587 22.8167 21.6354C23.381 20.7252 23.6997 19.7235 23.6997 18.6738C23.6997 14.4752 18.6847 10.5391 12.5034 10.5391C6.32215 10.5391 1.29883 14.4752 1.29883 18.6738C1.29883 19.7297 1.61539 20.7273 2.17978 21.6354C3.8813 20.3608 7.86331 19.4673 12.5013 19.4653H12.5034Z" fill="#EBF7FE"/>
<path d="M12.5043 19.4964C17.132 19.4964 21.1036 20.3836 22.803 21.6478C23.3653 20.746 23.684 19.7505 23.684 18.7092C23.684 14.5439 18.6752 10.6348 12.5043 10.6348C6.33348 10.6348 1.31641 14.5439 1.31641 18.7092C1.31641 19.7567 1.63297 20.746 2.19736 21.6478C3.8968 20.3815 7.87255 19.4985 12.5043 19.4964V19.4964Z" fill="#F1FAFE"/>
<path d="M12.5034 19.5255C17.1248 19.5255 21.0902 20.4043 22.7875 21.6602C23.3498 20.7646 23.6685 19.7775 23.6685 18.7445C23.6685 14.6125 18.668 10.7305 12.5034 10.7305C6.33882 10.7305 1.33008 14.6125 1.33008 18.7445C1.33008 19.7837 1.64664 20.7646 2.20895 21.6602C3.9063 20.4043 7.87789 19.5275 12.5034 19.5255Z" fill="#F7FCFE"/>
<path d="M12.5044 19.5563C17.1195 19.5563 21.0786 20.429 22.7738 21.6744C23.3341 20.7872 23.6527 19.8083 23.6527 18.7837C23.6527 14.685 18.6585 10.8301 12.5044 10.8301C6.35015 10.8301 1.34766 14.685 1.34766 18.7837C1.34766 19.8146 1.66213 20.7872 2.22445 21.6744C3.91971 20.429 7.88506 19.5584 12.5044 19.5563Z" fill="white"/>
</g>
<path d="M12.505 15.4619C8.46256 15.4619 4.71381 16.1471 1.62109 17.305C3.47464 21.4703 7.64825 24.3714 12.507 24.3714C17.3658 24.3714 21.5311 21.4703 23.3909 17.305C20.294 16.1471 16.5453 15.4619 12.507 15.4619H12.505Z" fill="#0078BA"/>
</svg>
