<svg width="121" height="20" viewBox="0 0 121 20" fill="none" xmlns="http://www.w3.org/2000/svg">
<path d="M35.5655 4.20011L33.2121 10.3582L32.2916 4.20978L30.0264 4.21946L26.7329 10.3808L26.7525 4.22914L23.9323 4.24204L23.9258 15.7937L26.6774 15.7872L30.183 9.26462L31.2014 15.7678L33.9531 15.7582L38.3857 4.19043L35.5655 4.20011Z" fill="#0067AC"/>
<path d="M43.5404 4.07722C41.3828 4.08367 38.6149 5.10948 37.6748 9.94496C36.738 14.7772 39.1143 15.7837 41.2686 15.7772C43.4229 15.7675 46.1941 14.745 47.1309 9.90948C48.0677 5.07399 45.6947 4.06754 43.5371 4.07722M41.7288 13.3901C41.3241 13.3933 40.0837 13.3966 40.7529 9.93206C41.4253 6.47077 42.6689 6.46431 43.0736 6.46109C43.4849 6.46109 44.722 6.45786 44.0529 9.91915C43.3805 13.3804 42.1401 13.3869 41.7288 13.3869" fill="#0067AC"/>
<path d="M54.0645 4.07722C51.907 4.08367 49.1423 5.10948 48.199 9.94496C47.2654 14.7772 49.6417 15.7837 51.7927 15.7772C53.9503 15.7708 56.7182 14.745 57.655 9.90948C58.5951 5.07722 56.2188 4.06754 54.0613 4.07722M52.253 13.3901C51.8482 13.3933 50.6046 13.3966 51.277 9.93206C51.9494 6.47077 53.1897 6.46431 53.5978 6.46109C54.0058 6.46109 55.2461 6.45786 54.577 9.91915C53.9046 13.3804 52.661 13.3869 52.253 13.3869" fill="#0067AC"/>
<path d="M65.1918 11.229C66.6117 10.4354 67.5517 8.89349 67.5517 6.90317C67.5517 3.95478 64.0037 4.24833 64.0037 4.24833H60.3218L57.8672 15.7451H60.6123L61.4218 11.8161H62.4924C62.8221 11.8709 63.2758 12.0677 63.3411 12.7128C63.4455 13.7483 63.6022 15.7935 63.6022 15.7935H66.3636C66.3636 15.7935 66.1188 12.987 66.0503 12.5612C65.9817 12.1387 65.8479 11.5483 65.1983 11.229M62.6164 6.37736C63.3672 6.37736 65.1624 5.78381 64.8523 7.88381C64.5423 9.98381 61.9734 9.71284 61.9734 9.71284L62.6164 6.37414V6.37736Z" fill="#0067AC"/>
<path d="M67.5176 15.8005L70.6152 15.7909L72.8576 4.23926L69.7567 4.24894L67.5176 15.8005Z" fill="#0067AC"/>
<path d="M120.002 4.19922H116.421L111.992 8.45083L112.831 4.19922H109.707L107.393 15.8347H110.523L111.479 11.0089L114.244 15.8347H118.05L114.293 9.60244L120.002 4.19922Z" fill="#0067AC"/>
<path d="M86.1295 7.25163C86.4984 5.36131 85.3918 4.2355 83.169 4.24518L77.8583 4.25808L75.6191 15.7968L80.9331 15.7839C83.626 15.7774 85.2156 14.6065 85.6595 12.3129C85.9076 11.0355 85.5844 10.0613 84.7488 9.52582C85.48 8.97421 85.9435 8.21292 86.1295 7.25486M82.8491 12.1774C82.7088 12.9161 82.3497 13.3742 81.0375 13.4452V13.4516H80.969C80.8678 13.4549 80.7666 13.4613 80.6556 13.4613H80.5283V13.4516H78.9779L79.4871 10.829H81.1648C83.1168 10.8194 82.9438 11.7032 82.8458 12.1774M83.2441 7.56453C83.1037 8.28711 82.8556 8.52582 82.0331 8.58066H79.9049L80.2966 6.58066H82.0135C83.3191 6.57421 83.3877 6.83228 83.2441 7.56776" fill="#0067AC"/>
<path d="M105.389 4.23926L104.182 10.8457L101.75 4.23926H98.8056L96.5469 15.8005L99.2822 15.7296L100.62 8.73281L103.059 15.8005H105.82L108.079 4.23926H105.389Z" fill="#0067AC"/>
<path d="M91.4628 4.23926L84.8008 15.8005H87.9441L89.1812 13.5973L92.7945 13.6231L93.0524 15.8005H95.9672L94.1883 4.23926H91.4595H91.4628ZM90.4281 11.3973L92.1907 7.99087L92.6085 11.4005H90.4281V11.3973Z" fill="#0067AC"/>
<path d="M20.2513 10C20.2513 15.5215 15.7149 20 10.129 20C4.54322 20 0 15.5198 0 10C0 4.48017 4.53479 0 10.129 0C15.7233 0 20.2513 4.48017 20.2513 10Z" fill="white"/>
<path d="M10.1276 19.4959C15.457 19.4959 19.7792 15.229 19.7792 9.96737C19.7792 4.70579 15.457 0.435547 10.1276 0.435547C4.79825 0.435547 0.472656 4.70246 0.472656 9.96737C0.472656 15.2323 4.79487 19.4959 10.1276 19.4959Z" fill="#0078BA"/>
<mask id="mask0_1755_29872" style="mask-type:alpha" maskUnits="userSpaceOnUse" x="0" y="0" width="20" height="20">
<path d="M10.1276 19.4959C15.457 19.4959 19.7792 15.229 19.7792 9.96737C19.7792 4.70579 15.457 0.435547 10.1276 0.435547C4.79825 0.435547 0.472656 4.70246 0.472656 9.96737C0.472656 15.2323 4.79487 19.4959 10.1276 19.4959Z" fill="#0078BA"/>
</mask>
<g mask="url(#mask0_1755_29872)">
<path d="M10.1634 14.5671C14.403 14.5671 18.0386 15.7317 19.5974 17.3912C20.1187 16.2049 20.4038 14.8987 20.4038 13.5324C20.4038 8.0626 15.8167 3.63574 10.1617 3.63574C4.50674 3.63574 -0.0820312 8.06593 -0.0820312 13.5341C-0.0820312 14.9037 0.206454 16.2049 0.729438 17.3912C2.27984 15.73 5.92049 14.5671 10.1617 14.5671H10.1634Z" fill="#0078BA"/>
<path d="M10.1618 14.5771C14.3912 14.5771 18.0167 15.7317 19.5722 17.3795C20.0918 16.2032 20.3769 14.907 20.3769 13.5524C20.3769 8.12757 15.8016 3.7207 10.1618 3.7207C4.52201 3.7207 -0.0566406 8.12923 -0.0566406 13.5541C-0.0566406 14.9136 0.230158 16.2032 0.753143 17.3795C2.30017 15.7317 5.93069 14.5771 10.1618 14.5771Z" fill="#007ABB"/>
<path d="M10.1624 14.5878C14.38 14.5878 17.9971 15.7324 19.5492 17.3668C20.0671 16.2006 20.3522 14.9143 20.3522 13.5698C20.3522 8.18823 15.7887 3.80469 10.1641 3.80469C4.53949 3.80469 -0.0273438 8.19156 -0.0273438 13.5731C-0.0273438 14.921 0.259455 16.2006 0.780752 17.3668C2.3244 15.7324 5.9448 14.5878 10.1658 14.5878H10.1624Z" fill="#007CBD"/>
<path d="M10.1603 14.5994C14.3678 14.5994 17.9747 15.7357 19.5217 17.3552C20.0396 16.1989 20.3231 14.9226 20.3231 13.5897C20.3231 8.25319 15.7714 3.88965 10.1603 3.88965C4.54917 3.88965 -0.00585938 8.25486 -0.00585938 13.5914C-0.00585938 14.9276 0.280939 16.1972 0.800549 17.3552C2.34082 15.734 5.95279 14.5994 10.1603 14.5994Z" fill="#007EBE"/>
<path d="M10.159 14.6094C14.3546 14.6094 17.9548 15.7357 19.4968 17.3435C20.013 16.1955 20.2964 14.931 20.2964 13.6081C20.2964 8.31483 15.7566 3.97461 10.1606 3.97461C4.5647 3.97461 0.0214844 8.31816 0.0214844 13.6114C0.0214844 14.9376 0.306595 16.1972 0.824518 17.3435C2.35973 15.7357 5.96327 14.6094 10.1606 14.6094H10.159Z" fill="#0080C0"/>
<path d="M10.1585 14.6191C14.3441 14.6191 17.9341 15.7354 19.471 17.3299C19.9856 16.1919 20.2673 14.939 20.2673 13.6261C20.2673 8.37618 15.7393 4.05762 10.1568 4.05762C4.57438 4.05762 0.0429688 8.37784 0.0429688 13.6278C0.0429688 14.9423 0.32808 16.1919 0.844317 17.3299C2.37616 15.7354 5.96957 14.6191 10.1568 14.6191H10.1585Z" fill="#0082C2"/>
<path d="M10.1572 14.6317C14.3309 14.6317 17.9125 15.7397 19.4461 17.3192C19.9589 16.1912 20.2407 14.9483 20.2407 13.6471C20.2407 8.44212 15.7244 4.14355 10.1572 4.14355C4.58992 4.14355 0.0703125 8.44212 0.0703125 13.6487C0.0703125 14.9533 0.353737 16.1912 0.869974 17.3192C2.39844 15.738 5.98173 14.6317 10.1572 14.6317Z" fill="#0084C3"/>
<path d="M10.1553 14.6407C14.3189 14.6407 17.8904 15.7387 19.4206 17.3065C19.9334 16.1886 20.2135 14.9556 20.2135 13.6644C20.2135 8.50278 15.7091 4.22754 10.1553 4.22754C4.60154 4.22754 0.09375 8.50445 0.09375 13.6661C0.09375 14.959 0.377175 16.1869 0.891724 17.3048C2.41513 15.737 5.98998 14.6391 10.1553 14.6391V14.6407Z" fill="#0086C5"/>
<path d="M10.1537 14.6504C14.3055 14.6504 17.8686 15.7384 19.3937 17.2929C19.9048 16.1833 20.1849 14.962 20.1849 13.6824C20.1849 8.56413 15.6923 4.31055 10.1537 4.31055C4.61512 4.31055 0.119141 8.5658 0.119141 13.6841C0.119141 14.9653 0.400878 16.1833 0.91374 17.2929C2.43377 15.7384 5.9985 14.6504 10.1537 14.6504Z" fill="#0088C6"/>
<path d="M10.1538 14.6614C14.2955 14.6614 17.8484 15.741 19.3701 17.2805C19.8796 16.1809 20.1597 14.9696 20.1597 13.7017C20.1597 8.62841 15.6789 4.39648 10.1538 4.39648C4.62871 4.39648 0.144531 8.63007 0.144531 13.7034C0.144531 14.9746 0.426268 16.1826 0.937443 17.2805C2.4541 15.7394 6.0104 14.6614 10.1521 14.6614H10.1538Z" fill="#008AC8"/>
<path d="M10.1502 14.6721C14.2801 14.6721 17.8246 15.7417 19.3413 17.2695C19.8491 16.1799 20.1291 14.9786 20.1291 13.7207C20.1291 8.69073 15.6601 4.48047 10.1502 4.48047C4.64033 4.48047 0.167969 8.6924 0.167969 13.7224C0.167969 14.982 0.448019 16.1799 0.959195 17.2695C2.47079 15.7417 6.01865 14.6721 10.1502 14.6721Z" fill="#008CCA"/>
<path d="M10.1503 14.6818C14.2701 14.6818 17.8044 15.7414 19.3177 17.2559C19.8255 16.1763 20.1039 14.985 20.1039 13.7388C20.1039 8.75208 15.6467 4.56348 10.1503 4.56348C4.65391 4.56348 0.193359 8.75375 0.193359 13.7404C0.193359 14.9883 0.473409 16.1763 0.982898 17.2559C2.49112 15.7414 6.02886 14.6818 10.1503 14.6818Z" fill="#008FCB"/>
<path d="M10.1507 14.6937C14.2586 14.6937 17.7846 15.745 19.2945 17.2445C19.8006 16.1749 20.0773 14.9936 20.0773 13.759C20.0773 8.81733 15.6319 4.65039 10.1507 4.65039C4.66945 4.65039 0.220703 8.819 0.220703 13.7607C0.220703 14.9986 0.500754 16.1749 1.00856 17.2462C2.5134 15.745 6.04102 14.6954 10.1524 14.6954L10.1507 14.6937Z" fill="#0091CD"/>
<path d="M10.1485 14.7044C14.2464 14.7044 17.7622 15.7457 19.267 17.2335C19.7715 16.1722 20.0481 15.0026 20.0481 13.778C20.0481 8.87966 15.6146 4.73438 10.1468 4.73438C4.67912 4.73438 0.242188 8.88132 0.242188 13.7797C0.242188 15.0059 0.520551 16.1722 1.02667 17.2335C2.52645 15.7457 6.04563 14.7044 10.1452 14.7044H10.1485Z" fill="#0093CF"/>
<path d="M10.1472 14.7144C14.2332 14.7144 17.7406 15.7457 19.2421 17.2202C19.7448 16.1689 20.0215 15.0093 20.0215 13.7963C20.0215 8.94296 15.5997 4.81934 10.1472 4.81934C4.69466 4.81934 0.269531 8.94463 0.269531 13.798C0.269531 15.0126 0.547894 16.1689 1.05232 17.2202C2.54873 15.7457 6.05779 14.7144 10.1472 14.7144Z" fill="#0095D0"/>
<path d="M10.1436 14.726C14.2195 14.726 17.7168 15.749 19.2149 17.2085C19.7176 16.1672 19.9926 15.0176 19.9926 13.8163C19.9926 9.00626 15.5827 4.9043 10.1453 4.9043C4.70797 4.9043 0.292969 9.00793 0.292969 13.818C0.292969 15.0226 0.569645 16.1689 1.07407 17.2102C2.56711 15.749 6.06773 14.7277 10.1453 14.7277L10.1436 14.726Z" fill="#0097D2"/>
<path d="M10.1457 14.7357C14.2098 14.7357 17.6986 15.7487 19.1916 17.1966C19.6927 16.1652 19.9677 15.0256 19.9677 13.8344C19.9677 9.06761 15.5695 4.9873 10.1457 4.9873C4.72182 4.9873 0.320312 9.06928 0.320312 13.8344C0.320312 15.0273 0.596989 16.1636 1.09973 17.1949C2.58939 15.7471 6.07989 14.7341 10.1457 14.7341V14.7357Z" fill="#009AD4"/>
<path d="M10.1424 14.7457C14.1964 14.7457 17.6751 15.7487 19.1647 17.1832C19.6641 16.1602 19.9391 15.0323 19.9391 13.8527C19.9391 9.13091 15.5528 5.07227 10.1441 5.07227C4.7354 5.07227 0.345703 9.13258 0.345703 13.8543C0.345703 15.0373 0.620693 16.1619 1.12175 17.1849C2.60635 15.7504 6.08842 14.7474 10.1441 14.7474L10.1424 14.7457Z" fill="#009CD6"/>
<path d="M10.1422 14.7581C14.1861 14.7581 17.6546 15.7527 19.1392 17.1722C19.6369 16.1592 19.9119 15.0413 19.9119 13.8717C19.9119 9.19324 15.5374 5.15625 10.1422 5.15625C4.74703 5.15625 0.369141 9.19324 0.369141 13.8717C0.369141 15.043 0.644129 16.1576 1.14349 17.1706C2.62472 15.7494 6.09667 14.7564 10.1422 14.7564V14.7581Z" fill="#009ED7"/>
<path d="M10.1406 14.7683C14.1727 14.7683 17.6328 15.753 19.114 17.1609C19.6117 16.1579 19.8833 15.0499 19.8833 13.8919C19.8833 9.25683 15.5206 5.24316 10.1406 5.24316C4.76061 5.24316 0.394531 9.25849 0.394531 13.8936C0.394531 15.0532 0.667833 16.1579 1.1672 17.1609C2.64505 15.753 6.10688 14.7683 10.1423 14.7683H10.1406Z" fill="#00A1D9"/>
<path d="M10.1407 14.7761C14.1626 14.7761 17.6126 15.7507 19.0905 17.1453C19.5865 16.1523 19.8581 15.056 19.8581 13.908C19.8581 9.31789 15.5072 5.32422 10.1407 5.32422C4.77419 5.32422 0.419922 9.31789 0.419922 13.9097C0.419922 15.0593 0.693224 16.1539 1.1909 17.1469C2.6637 15.7524 6.11708 14.7777 10.1407 14.7777V14.7761Z" fill="#00A3DB"/>
<path d="M10.1391 14.7884C14.1492 14.7884 17.5908 15.7548 19.0636 17.1343C19.5579 16.1496 19.8295 15.065 19.8295 13.927C19.8295 9.38021 15.4904 5.4082 10.1391 5.4082C4.78778 5.4082 0.445312 9.38021 0.445312 13.927C0.445312 15.065 0.716928 16.1496 1.21292 17.1326C2.68234 15.7514 6.1256 14.7867 10.1391 14.7867V14.7884Z" fill="#00A6DD"/>
<path d="M10.1353 14.7984C14.1353 14.7984 17.5684 15.7547 19.0361 17.121C19.5288 16.1463 19.8004 15.0716 19.8004 13.9453C19.8004 9.44185 15.4731 5.49316 10.1353 5.49316C4.79745 5.49316 0.466797 9.44351 0.466797 13.947C0.466797 15.0733 0.738412 16.1479 1.23272 17.1226C2.69876 15.7547 6.13359 14.8001 10.1353 14.8001V14.7984Z" fill="#00A8DF"/>
<path d="M10.1376 14.8084C14.1258 14.8084 17.5505 15.7547 19.0131 17.1093C19.5057 16.1446 19.7757 15.08 19.7757 13.9653C19.7757 9.50682 15.4602 5.57812 10.1376 5.57812C4.81494 5.57812 0.496094 9.50682 0.496094 13.9653C0.496094 15.0816 0.767708 16.1446 1.26033 17.1093C2.72131 15.7547 6.1477 14.8084 10.1376 14.8084Z" fill="#00ABE1"/>
<path d="M10.1338 14.82C14.1118 14.82 17.5264 15.7581 18.9857 17.0976C19.4766 16.1429 19.7465 15.0883 19.7465 13.9836C19.7465 9.56845 15.4429 5.66309 10.1338 5.66309C4.82461 5.66309 0.517578 9.57012 0.517578 13.9853C0.517578 15.0899 0.787505 16.1429 1.28012 17.0976C2.73773 15.7564 6.154 14.82 10.1338 14.82Z" fill="#00ADE3"/>
<path d="M10.1341 14.8307C14.1004 14.8307 17.5065 15.7587 18.9624 17.085C19.4517 16.1403 19.7199 15.0956 19.7199 14.0027C19.7199 9.63078 15.4281 5.74707 10.1341 5.74707C4.84015 5.74707 0.544922 9.63244 0.544922 14.0027C0.544922 15.0956 0.81485 16.1386 1.30409 17.085C2.75833 15.7571 6.16448 14.8307 10.1341 14.8307Z" fill="#00B0E5"/>
<path d="M10.132 14.8407C14.0881 14.8407 17.4841 15.7587 18.935 17.0733C19.4242 16.1369 19.6908 15.1039 19.6908 14.0226C19.6908 9.69574 15.4107 5.83203 10.1303 5.83203C4.84982 5.83203 0.566406 9.69574 0.566406 14.0226C0.566406 15.1056 0.834647 16.1386 1.32389 17.0733C2.77306 15.7587 6.17078 14.8407 10.1286 14.8407H10.132Z" fill="#00B3E7"/>
<path d="M10.1326 14.8523C14.0769 14.8523 17.4645 15.762 18.912 17.0616C19.3995 16.1353 19.6661 15.1123 19.6661 14.041C19.6661 9.75738 15.3979 5.91699 10.1326 5.91699C4.86731 5.91699 0.595703 9.75905 0.595703 14.041C0.595703 15.1123 0.863944 16.1353 1.3515 17.0616C2.7973 15.7604 6.18489 14.8523 10.1326 14.8523Z" fill="#00B5E9"/>
<path d="M10.1307 14.863C14.0649 14.863 17.4424 15.7627 18.8848 17.049C19.3707 16.1326 19.6372 15.1196 19.6372 14.06C19.6372 9.82137 15.3808 6.00098 10.1307 6.00098C4.88062 6.00098 0.619141 9.82137 0.619141 14.06C0.619141 15.1196 0.885694 16.1326 1.37325 17.049C2.81568 15.7611 6.19483 14.863 10.1307 14.863Z" fill="#08B9EB"/>
<path d="M10.1272 14.8727C14.0495 14.8727 17.4186 15.7624 18.8576 17.037C19.3418 16.1306 19.6084 15.1276 19.6084 14.078C19.6084 9.88272 15.3638 6.08398 10.1272 6.08398C4.89057 6.08398 0.642578 9.88272 0.642578 14.078C0.642578 15.1276 0.909132 16.129 1.395 17.0353C2.83237 15.7608 6.20309 14.8711 10.1288 14.8711L10.1272 14.8727Z" fill="#15BCED"/>
<path d="M10.1275 14.8847C14.0398 14.8847 17.3987 15.766 18.8344 17.0256C19.3186 16.1276 19.5834 15.1362 19.5834 14.0983C19.5834 9.94631 15.3506 6.1709 10.1292 6.1709C4.90779 6.1709 0.669922 9.94631 0.669922 14.0983C0.669922 15.1362 0.934788 16.1276 1.41897 17.0256C2.85296 15.7644 6.21356 14.8847 10.1275 14.8847Z" fill="#1DBFF0"/>
<path d="M10.1256 14.8944C14.0261 14.8944 17.3766 15.7657 18.8072 17.012C19.2897 16.124 19.5546 15.1426 19.5546 14.1163C19.5546 10.0093 15.3336 6.25391 10.1256 6.25391C4.91773 6.25391 0.693359 10.0077 0.693359 14.1163C0.693359 15.1443 0.958226 16.124 1.44072 17.012C2.87134 15.7641 6.22181 14.8944 10.1256 14.8944Z" fill="#22C4F4"/>
<path d="M10.1256 14.9192C14.0209 14.9192 17.3664 15.7855 18.7953 17.0235C19.2761 16.1421 19.541 15.1674 19.541 14.1461C19.541 10.0658 15.325 6.33203 10.1256 6.33203C4.92607 6.33203 0.705078 10.0641 0.705078 14.1461C0.705078 15.1674 0.969944 16.1421 1.45075 17.0235C2.87968 15.7839 6.2251 14.9192 10.1239 14.9192H10.1256Z" fill="#33C6F4"/>
<path d="M10.1274 14.943C14.0177 14.943 17.3581 15.8027 18.7853 17.034C19.2662 16.1576 19.5293 15.1896 19.5293 14.1749C19.5293 10.1213 15.3201 6.40918 10.1257 6.40918C4.93131 6.40918 0.71875 10.1196 0.71875 14.1749C0.71875 15.1896 0.983616 16.1576 1.46442 17.034C2.89167 15.8027 6.23371 14.943 10.1257 14.943H10.1274Z" fill="#40C7F4"/>
<path d="M10.1259 14.9681C14.0112 14.9681 17.3482 15.8228 18.772 17.0457C19.2511 16.1744 19.516 15.213 19.516 14.2067C19.516 10.1797 15.3119 6.48926 10.1259 6.48926C4.93992 6.48926 0.732422 10.178 0.732422 14.2067C0.732422 15.2147 0.995602 16.176 1.47641 17.0457C2.90197 15.8228 6.23895 14.9681 10.1259 14.9681Z" fill="#4BC9F5"/>
<path d="M10.1258 14.991C14.006 14.991 17.3379 15.839 18.7601 17.0553C19.2392 16.1906 19.5024 15.2342 19.5024 14.2345C19.5024 10.2342 15.3034 6.56543 10.1258 6.56543C4.94826 6.56543 0.744141 10.2325 0.744141 14.2345C0.744141 15.2359 1.00732 16.1906 1.48644 17.0553C2.91031 15.8407 6.24223 14.9926 10.1258 14.991Z" fill="#55CAF5"/>
<path d="M10.126 15.0165C14.0011 15.0165 17.328 15.8595 18.7502 17.0658C19.2276 16.2061 19.4908 15.258 19.4908 14.2634C19.4908 10.2897 15.2985 6.64258 10.126 6.64258C4.9535 6.64258 0.757812 10.2897 0.757812 14.2634C0.757812 15.258 1.02099 16.2061 1.50011 17.0658C2.92061 15.8595 6.24916 15.0165 10.1277 15.0165H10.126Z" fill="#5DCCF5"/>
<path d="M10.1262 15.0393C13.9963 15.0393 17.3181 15.8774 18.7385 17.0753C19.216 16.2222 19.4792 15.2792 19.4792 14.2912C19.4792 10.3442 15.2919 6.71875 10.1279 6.71875C4.9638 6.71875 0.771484 10.3442 0.771484 14.2912C0.771484 15.2792 1.03466 16.2206 1.5121 17.0753C2.93091 15.8774 6.25608 15.0393 10.1279 15.0393H10.1262Z" fill="#65CEF6"/>
<path d="M10.1261 15.0644C13.9911 15.0644 17.3078 15.8958 18.7266 17.0871C19.2024 16.239 19.4656 15.3027 19.4656 14.323C19.4656 10.4026 15.2834 6.79883 10.1261 6.79883C4.96877 6.79883 0.783203 10.4026 0.783203 14.323C0.783203 15.3043 1.04638 16.239 1.52213 17.0871C2.93925 15.8958 6.25936 15.0644 10.1261 15.0644Z" fill="#6DCFF6"/>
<path d="M10.126 15.0873C13.9843 15.0873 17.2976 15.9137 18.7147 17.0966C19.1888 16.2552 19.452 15.3239 19.452 14.3508C19.452 10.4571 15.2765 6.875 10.126 6.875C4.97543 6.875 0.794922 10.4571 0.794922 14.3508C0.794922 15.3255 1.0581 16.2552 1.53216 17.0966C2.9476 15.9137 6.26264 15.0873 10.1243 15.0873H10.126Z" fill="#74D1F6"/>
<path d="M10.1264 15.113C13.9796 15.113 17.2896 15.9344 18.7034 17.109C19.1774 16.2727 19.4406 15.3496 19.4406 14.3816C19.4406 10.5146 15.2702 6.9541 10.1281 6.9541C4.98599 6.9541 0.810547 10.5146 0.810547 14.3816C0.810547 15.3496 1.07204 16.2727 1.54779 17.109C2.96153 15.9344 6.27152 15.1147 10.1281 15.113H10.1264Z" fill="#7BD3F7"/>
<path d="M10.1261 15.1379C13.9742 15.1379 17.2792 15.9526 18.6912 17.1189C19.1636 16.2891 19.4268 15.3711 19.4268 14.4114C19.4268 10.571 15.2631 7.03223 10.1261 7.03223C4.98901 7.03223 0.820312 10.571 0.820312 14.4114C0.820312 15.3728 1.08181 16.2891 1.55587 17.1189C2.96792 15.9526 6.27454 15.1379 10.1261 15.1379Z" fill="#81D4F7"/>
<path d="M10.1262 15.1607C13.9693 15.1607 17.2692 15.9704 18.6796 17.1284C19.1519 16.3037 19.4134 15.3923 19.4134 14.4393C19.4134 10.6256 15.2549 7.1084 10.1262 7.1084C4.99762 7.1084 0.833984 10.6256 0.833984 14.4393C0.833984 15.394 1.09548 16.3037 1.56785 17.1284C2.97822 15.9704 6.27977 15.1607 10.1262 15.1607Z" fill="#88D6F8"/>
<path d="M10.1264 15.1865C13.9645 15.1865 17.2593 15.9912 18.6679 17.1408C19.1386 16.3211 19.4018 15.4164 19.4018 14.4701C19.4018 10.683 15.2483 7.1875 10.1264 7.1875C5.00454 7.1875 0.847656 10.683 0.847656 14.4701C0.847656 15.4198 1.10915 16.3211 1.58152 17.1408C2.99021 15.9912 6.2867 15.1865 10.1281 15.1865H10.1264Z" fill="#8ED8F8"/>
<path d="M10.1263 15.2087C13.9593 15.2087 17.2491 16.0067 18.656 17.1497C19.1267 16.3366 19.3882 15.4386 19.3882 14.4972C19.3882 10.7368 15.2415 7.26465 10.1263 7.26465C5.0112 7.26465 0.859375 10.7385 0.859375 14.4972C0.859375 15.4403 1.12087 16.335 1.59155 17.1497C2.99855 16.0084 6.28998 15.2103 10.1263 15.2087Z" fill="#95DAF8"/>
<path d="M10.1265 15.2338C13.9544 15.2338 17.2391 16.0268 18.6444 17.1615C19.1134 16.3534 19.3749 15.462 19.3749 14.529C19.3749 10.7952 15.2332 7.34473 10.1265 7.34473C5.01981 7.34473 0.873047 10.7969 0.873047 14.529C0.873047 15.4654 1.13285 16.3551 1.60354 17.1615C3.00885 16.0268 6.29691 15.2354 10.1265 15.2338Z" fill="#9BDCF9"/>
<path d="M10.1245 15.2583C13.9473 15.2583 17.2286 16.0464 18.6306 17.171C19.0996 16.3696 19.361 15.4832 19.361 14.5569C19.361 10.8498 15.2244 7.4209 10.1245 7.4209C5.02452 7.4209 0.882812 10.8514 0.882812 14.5569C0.882812 15.4865 1.14262 16.3696 1.6133 17.171C3.01693 16.0447 6.29992 15.2583 10.1245 15.2583Z" fill="#A1DEF9"/>
<path d="M10.1266 15.2831C13.9427 15.2831 17.2206 16.0645 18.6209 17.1825C19.0882 16.3861 19.3497 15.508 19.3497 14.5867C19.3497 10.9062 15.2198 7.49902 10.1266 7.49902C5.03339 7.49902 0.898438 10.9079 0.898438 14.5867C0.898438 15.5097 1.15824 16.3861 1.62724 17.1825C3.02749 16.0645 6.30711 15.2831 10.1266 15.2831Z" fill="#A7DFF9"/>
<path d="M10.1265 15.3053C13.9375 15.3053 17.2104 16.0817 18.609 17.1913C19.0763 16.4016 19.3361 15.5285 19.3361 14.6155C19.3361 10.9634 15.2113 7.57617 10.1265 7.57617C5.04174 7.57617 0.910156 10.9634 0.910156 14.6155C0.910156 15.5319 1.16996 16.4016 1.63727 17.1913C3.03584 16.0817 6.3104 15.3069 10.1265 15.3053Z" fill="#ADE1FA"/>
<path d="M10.1267 15.331C13.9327 15.331 17.2005 16.1025 18.5973 17.2038C19.063 16.419 19.3245 15.5526 19.3245 14.6463C19.3245 11.0208 15.2047 7.65527 10.1267 7.65527C5.04866 7.65527 0.923828 11.0208 0.923828 14.6463C0.923828 15.556 1.18363 16.419 1.64926 17.2038C3.04613 16.1025 6.31732 15.3327 10.1267 15.331Z" fill="#B3E3FA"/>
<path d="M10.1246 15.3546C13.9255 15.3546 17.1883 16.1193 18.5835 17.2123C19.0491 16.4326 19.3089 15.5729 19.3089 14.6732C19.3089 11.0744 15.1959 7.73047 10.1246 7.73047C5.05336 7.73047 0.933594 11.0744 0.933594 14.6732C0.933594 15.5762 1.1934 16.4326 1.65902 17.2123C3.05421 16.1193 6.32034 15.3546 10.1246 15.3546Z" fill="#B9E5FB"/>
<path d="M10.1265 15.3794C13.9223 15.3794 17.1817 16.1392 18.5735 17.2238C19.0375 16.4507 19.2973 15.5977 19.2973 14.703C19.2973 11.1308 15.1893 7.80859 10.1248 7.80859C5.06029 7.80859 0.947266 11.1308 0.947266 14.703C0.947266 15.5993 1.20538 16.449 1.67101 17.2238C3.06451 16.1392 6.32557 15.3794 10.1248 15.3794H10.1265Z" fill="#BFE7FB"/>
<path d="M10.1267 15.4025C13.9175 15.4025 17.1718 16.1573 18.5619 17.2336C19.0242 16.4655 19.2857 15.6191 19.2857 14.7328C19.2857 11.1873 15.1828 7.88672 10.1267 7.88672C5.07059 7.88672 0.960938 11.1873 0.960938 14.7328C0.960938 15.6225 1.21906 16.4672 1.68299 17.2336C3.07481 16.1556 6.33081 15.4042 10.125 15.4025H10.1267Z" fill="#C4E9FB"/>
<path d="M10.1268 15.4283C13.9126 15.4283 17.1618 16.1764 18.5503 17.2461C19.0125 16.4846 19.2723 15.6433 19.2723 14.7636C19.2723 11.2447 15.1762 7.96582 10.1268 7.96582C5.07751 7.96582 0.974609 11.2447 0.974609 14.7636C0.974609 15.6466 1.23273 16.4846 1.69667 17.2461C3.08679 16.1764 6.33942 15.43 10.1268 15.4283Z" fill="#CAEBFC"/>
<path d="M10.1251 15.4522C13.9057 15.4522 17.1499 16.1953 18.5384 17.2566C18.9989 16.5001 19.2587 15.6654 19.2587 14.7924C19.2587 11.3002 15.1677 8.04297 10.1251 8.04297C5.08248 8.04297 0.986328 11.3002 0.986328 14.7924C0.986328 15.6704 1.24445 16.5001 1.7067 17.2566C3.09514 16.1953 6.34271 15.4538 10.1268 15.4522H10.1251Z" fill="#CFEDFC"/>
<path d="M10.1252 15.476C13.8992 15.476 17.14 16.2124 18.5267 17.2654C18.9873 16.5157 19.2471 15.6876 19.2471 14.8212C19.2471 11.3557 15.1611 8.12012 10.1269 8.12012C5.09278 8.12012 1 11.3557 1 14.8212C1 15.6926 1.25812 16.5157 1.71868 17.2654C3.10544 16.2124 6.34794 15.476 10.1269 15.476H10.1252Z" fill="#D5EFFC"/>
<path d="M10.1271 15.5008C13.896 15.5008 17.1317 16.2322 18.5168 17.2769C18.9757 16.5321 19.2355 15.7107 19.2355 14.851C19.2355 11.4122 15.1562 8.19824 10.1271 8.19824C5.09801 8.19824 1.01367 11.4122 1.01367 14.851C1.01367 15.7157 1.2701 16.5321 1.73067 17.2769C3.11573 16.2322 6.35318 15.5025 10.1271 15.5008Z" fill="#DBF1FD"/>
<path d="M10.127 15.5237C13.8908 15.5237 17.1232 16.2501 18.5049 17.2864C18.9638 16.5467 19.2219 15.7319 19.2219 14.8789C19.2219 11.4667 15.1477 8.27441 10.127 8.27441C5.10636 8.27441 1.02539 11.4667 1.02539 14.8789C1.02539 15.7369 1.28182 16.5467 1.74239 17.2864C3.12577 16.2501 6.35984 15.5253 10.127 15.5237Z" fill="#E0F3FD"/>
<path d="M10.1255 15.5495C13.8842 15.5495 17.1116 16.2692 18.4916 17.2989C18.9488 16.5658 19.2086 15.756 19.2086 14.9097C19.2086 11.5241 15.1394 8.35352 10.1272 8.35352C5.11497 8.35352 1.03906 11.5241 1.03906 14.9097C1.03906 15.761 1.29549 16.5641 1.75437 17.2989C3.13438 16.2709 6.36507 15.5511 10.1272 15.5495H10.1255Z" fill="#E6F5FD"/>
<path d="M10.1251 15.5726C13.8788 15.5726 17.1011 16.2874 18.4794 17.3087C18.9366 16.5806 19.1947 15.7792 19.1947 14.9395C19.1947 11.5806 15.1323 8.43164 10.1251 8.43164C5.11799 8.43164 1.04883 11.5806 1.04883 14.9395C1.04883 15.7842 1.30526 16.5823 1.76245 17.3087C3.14077 16.289 6.3664 15.5743 10.1235 15.5726H10.1251Z" fill="#EBF7FE"/>
<path d="M10.1273 15.5971C13.8759 15.5971 17.0931 16.3069 18.4697 17.3182C18.9252 16.5968 19.1834 15.8004 19.1834 14.9673C19.1834 11.6351 15.126 8.50781 10.1273 8.50781C5.12855 8.50781 1.06445 11.6351 1.06445 14.9673C1.06445 15.8054 1.32089 16.5968 1.77808 17.3182C3.15471 16.3052 6.37528 15.5988 10.1273 15.5971Z" fill="#F1FAFE"/>
<path d="M10.1272 15.6209C13.8707 15.6209 17.0829 16.324 18.4578 17.3287C18.9133 16.6123 19.1714 15.8225 19.1714 14.9962C19.1714 11.6906 15.1208 8.58496 10.1272 8.58496C5.13352 8.58496 1.07617 11.6906 1.07617 14.9962C1.07617 15.8275 1.3326 16.6123 1.7881 17.3287C3.16305 16.324 6.38025 15.6226 10.1272 15.6209Z" fill="#F7FCFE"/>
<path d="M10.1254 15.646C13.8639 15.646 17.071 16.3441 18.4442 17.3405C18.8981 16.6307 19.1562 15.8476 19.1562 15.0279C19.1562 11.749 15.1106 8.66504 10.1254 8.66504C5.14018 8.66504 1.08789 11.749 1.08789 15.0279C1.08789 15.8526 1.34263 16.6307 1.79814 17.3405C3.17139 16.3441 6.38353 15.6477 10.1254 15.646Z" fill="white"/>
</g>
<path d="M10.1271 12.3701C6.8525 12.3701 3.81581 12.9183 1.31055 13.8446C2.81202 17.1768 6.19286 19.4977 10.1287 19.4977C14.0646 19.4977 17.4387 17.1768 18.9453 13.8446C16.4366 12.9183 13.3999 12.3701 10.1287 12.3701H10.1271Z" fill="#0078BA"/>
</svg>
